<svg xmlns="http://www.w3.org/2000/svg" width="473.91" height="406.572" viewBox="0 0 473.91 406.572">
  <g id="Group_8083" data-name="Group 8083" transform="translate(-2512.589 -5248.166)">
    <g id="Group_8041" data-name="Group 8041" transform="translate(2514.501 5498.953)">
      <path id="Path_19034" data-name="Path 19034" d="M2739.89,6485.066h-69.3c-6.489-3.225-17.3-4.248-29.227,0-1.325.467-2.649,1-3.994,1.606-26.323,11.828-33.084,9.178-35.111-2.376s7.754-18.959-12.587-23.966-32.832-13.347-32.666-36.836.341-25.144-13.006-32.091-23.343-38.326-23.011-41.94,20.391,12.831,35.033,16.075,23.264,15.84,31.857,17.02c6.976.964,22.515-3.585,28.2,3.956a12.066,12.066,0,0,1,2.153,7.326c.253,17.264,12.246,27.268,20.127,24.277s21.336-38.121,27.931-8.388,15.285,42.963,54.089,57.4C2730.644,6470.95,2736.636,6477.5,2739.89,6485.066Z" transform="translate(-2520.983 -6348.948)" fill="#25a1a5"/>
    </g>
    <g id="Group_8042" data-name="Group 8042" transform="translate(2810.883 5462.051)">
      <path id="Path_19035" data-name="Path 19035" d="M3829.255,6355.024s-21.784-43.153,9.6-57.543,37.8-25.933,41.461-51.065,17.013,3.255,23.753,5.261,16.1-7.052,15.246-21.423,17.494-9.739,24.562-11.25,13.476-12.513,25.453-16.111,27.659-18.513,28.153-15.525-5.9,29.7-16.572,36.3-10.422,7.958-8.843,27.487-8.3,27.224-24.909,32.644-8.034,10.977-9,20.713-6.43,12.355-29.051,4.133-40.719,5.3-28.647,12.539,9.821,14.054-12.267,21.472C3828.562,6355.961,3829.255,6355.024,3829.255,6355.024Z" transform="translate(-3821.895 -6186.974)" fill="#25a1a5"/>
    </g>
    <path id="Path_19036" data-name="Path 19036" d="M2643.042,5761.679s-.828,17.089-3.837,27.586-11.786,31.752-14.732,33.273c-1.461.76-3.413-.883-5.231-2.552-1.858-1.688-3.581-3.4-4.552-2.691-.416.313-.439,1.478-.407,3.1.068,3.914.438,10.449-3.85,13.707-6.051,4.6-39.75-11.325-39.868-12.55s9.186-7.38,7.735-12.808-15.432,6.745-27.667,1.738-38.231-50.129-38.043-51.384,31.875,3.423,34.1-2.358-24.835-10.6-30.358-16.559-.652-48.492,1.8-48.729c2.414-.233,20.939,8.176,21.52,8.429-.62-.534-20.251-17.594-21.317-22.367-1.085-4.843,3.383-29.087,6.547-31.557s41.152,13.044,42.95,15.655,7.907,24.288,11.086,34.807,7.956,2.327,5.25-3.288-3.075-22.281-1.513-22.123,30.771,20.85,31.432,24.5-9.08,37.368-2.844,41.1,10.431-29.768,10.955-30.745,16.794,23.432,16.926,37.646-6.772,26.014-6.624,27.544S2643.042,5761.679,2643.042,5761.679Z" transform="translate(0 -306.957)" fill="#25a1a5"/>
    <path id="Path_19037" data-name="Path 19037" d="M2772.171,5972.976c-1.858-1.689-3.581-3.4-4.552-2.691-.415.312-.439,1.478-.407,3.1-.269-.865-.6-1.947-.977-3.21-.6-1.884-1.317-4.177-2.151-6.794s-1.812-5.578-2.865-8.8c-2.166-6.435-4.732-13.931-7.663-21.888-.737-2-1.489-4.025-2.243-6.068-.778-2.041-1.57-4.1-2.376-6.179-.5-1.313-1-2.626-1.531-3.947-.575-1.479-1.177-2.968-1.778-4.456-.554-1.381-1.119-2.762-1.687-4.154-1.519-3.825-3.205-7.584-4.791-11.328l-.682-1.567,0-.013c-1.726-3.917-3.527-7.726-5.221-11.435-1.877-3.815-3.678-7.488-5.4-10.983-1.852-3.434-3.586-6.669-5.2-9.656-1.672-2.969-3.312-5.606-4.716-7.995-1.358-2.405-2.758-4.361-3.858-6.012-1.948-2.88-3.16-4.681-3.433-5.075.312.416,1.581,2.161,3.607,4.96,1.157,1.607,2.616,3.533,4.069,5.892,1.486,2.332,3.22,4.923,5,7.832,1.719,2.952,3.573,6.138,5.531,9.512,1.853,3.446,3.786,7.07,5.806,10.834,1.4,2.834,2.877,5.722,4.337,8.674.506,1.016,1,2.044,1.5,3.085.25.545.5,1.089.763,1.633,1.65,3.515,3.377,7.06,4.949,10.669,1.041,2.325,2.093,4.648,3.109,6.975.016.036.033.083.048.119q1.185,2.669,2.3,5.333c.866,2.057,1.743,4.1,2.593,6.121.828,2.037,1.638,4.036,2.447,6.012q.8,1.946,1.56,3.858,1.687,4.217,3.2,8.179c1.331,3.422,2.549,6.681,3.68,9.689,1.174,3.2,2.237,6.144,3.193,8.748.919,2.608,1.721,4.894,2.384,6.772C2771.341,5970.519,2771.827,5971.969,2772.171,5972.976Z" transform="translate(-152.929 -459.945)" fill="#e6e6ff"/>
    <path id="Path_19038" data-name="Path 19038" d="M2917.477,6132.072l-.041-.147c-.03-.119-.087-.325-.122-.512a14.739,14.739,0,0,1-.245-1.686,24.508,24.508,0,0,1,.185-5.739,37.57,37.57,0,0,1,1.961-7.632c.486-1.345,1.077-2.691,1.693-4.048l2.006-3.97c.349-.662.655-1.321.931-1.979s.594-1.307.835-1.986c.534-1.334.975-2.679,1.378-3.992q.272-.992.534-1.95l.429-1.892c.244-1.237.439-2.416.578-3.512a33.536,33.536,0,0,0,.2-7.363,33.673,33.673,0,0,1,.371,7.412c-.054,1.117-.159,2.325-.308,3.6-.093.636-.189,1.29-.286,1.958q-.191.995-.389,2.032c-.306,1.371-.652,2.785-1.093,4.2-.192.714-.46,1.42-.708,2.135s-.507,1.43-.8,2.1c-.56,1.362-1.12,2.725-1.671,4.065-.486,1.342-.948,2.663-1.306,3.964a34.728,34.728,0,0,0-1.262,7.166,21.123,21.123,0,0,0,.22,4.97,10.989,10.989,0,0,0,.286,1.271c.04.151.065.2.081.255l.04.112Z" transform="translate(-312.259 -646.695)" fill="#e6e6ff"/>
    <path id="Path_19039" data-name="Path 19039" d="M2833.467,5960.946l2.1-.314.582,1.785s-.025-.134-.073-.376a4.308,4.308,0,0,1-.094-.462c-.025-.134-.039-.28-.055-.452a7.959,7.959,0,0,1-.024-1.408,14,14,0,0,1,.294-1.958c.655-2.958,2.641-9.036,3.7-13.271l.208-.8.108-.42.086-.391c.1-.541.234-1.037.316-1.6a31.241,31.241,0,0,0,.373-3.191,29.434,29.434,0,0,0-.194-5.61,22.365,22.365,0,0,0-1.24-5.175.046.046,0,0,0-.016-.035.206.206,0,0,1-.018-.06.149.149,0,0,1,.018.06.046.046,0,0,1,.016.035,23.108,23.108,0,0,1,.663,5.22,28.592,28.592,0,0,1-.391,5.444,29.228,29.228,0,0,1-.667,2.958c-.115.48-.324,1.009-.485,1.518l-.124.384-.127.346-.286.757c-1.48,4.027-3.431,7.791-4.562,11.067-.093.318-.187.624-.27.916a10.559,10.559,0,0,0-.33,1.455,11.228,11.228,0,0,0-.191,2v.012Z" transform="translate(-247.245 -524.339)" fill="#e6e6ff"/>
    <path id="Path_19040" data-name="Path 19040" d="M2747.811,6147.044l-.33-.285a5.192,5.192,0,0,0-.844-.659,5.085,5.085,0,0,0-.513-.316l-.749-.339-.926-.274c-.35-.05-.707-.142-1.1-.177a21.973,21.973,0,0,0-3.333-.146,29.406,29.406,0,0,0-3.1.421c-2.177.4-4.526,1-6.917,1.515l-1.832.37c-.609.076-1.163.2-1.81.237a24.95,24.95,0,0,1-3.609.069,39.861,39.861,0,0,1-6.22-.811,45.093,45.093,0,0,1-5.857-1.595,44.986,44.986,0,0,0,5.948,1.025,39.01,39.01,0,0,0,6.128.211,23.772,23.772,0,0,0,3.365-.381c.543-.072,1.152-.269,1.73-.4l1.685-.512c2.288-.727,4.57-1.547,6.81-2.188a31.733,31.733,0,0,1,3.325-.778,17.692,17.692,0,0,1,3.184-.29c.509,0,1.012.063,1.485.094.476.074.933.176,1.359.261.423.126.816.27,1.182.4a8.725,8.725,0,0,1,1.033.5,8.224,8.224,0,0,1,1.165.745c.231.165.205.278.205.278Z" transform="translate(-152.948 -689.997)" fill="#e6e6ff"/>
    <path id="Path_19041" data-name="Path 19041" d="M3665.453,5538.662s-1.568,21.78.638,35.54,10.071,42.039,13.571,44.417c1.735,1.185,4.46-.6,7.02-2.433,2.612-1.856,5.059-3.764,6.179-2.713.478.458.331,1.939.042,3.985-.685,4.949-2.154,13.17,2.78,17.956,6.962,6.76,52.1-8.262,52.437-9.8s-10.509-10.757-7.839-17.411,18.52,10.908,34.789,6.438,56.118-57.664,56.072-59.283-40.913-.543-42.848-8.209,33.089-9.624,41-16.333,8.251-61.343,5.18-62.018c-3.023-.664-27.783,7.153-28.558,7.385.868-.582,28.354-19.193,30.434-25.076,2.117-5.97.168-37.374-3.462-40.987s-54.141,10.227-56.819,13.258-13.738,29.565-19.375,42.406-10.437,1.73-6.148-4.972,7.307-27.76,5.3-27.8-42.181,21.706-43.577,26.226,5.782,48.739-2.689,52.509-8.658-39.314-9.173-40.634-24.866,27.118-27.211,45.108,4.6,34,4.176,35.916S3665.453,5538.662,3665.453,5538.662Z" transform="translate(-889.794 -124.599)" fill="#25a1a5"/>
    <path id="Path_19042" data-name="Path 19042" d="M3760.46,5793.879c2.612-1.855,5.059-3.764,6.179-2.712.479.459.33,1.938.042,3.984.473-1.055,1.053-2.375,1.729-3.917,1.052-2.3,2.31-5.092,3.767-8.28,1.475-3.2,3.149-6.79,4.978-10.717,3.73-7.821,8.128-16.928,13.061-26.56,1.239-2.415,2.5-4.873,3.771-7.346q1.947-3.7,3.958-7.465c.831-1.587,1.663-3.175,2.544-4.767.955-1.786,1.945-3.58,2.935-5.373.913-1.667,1.841-3.329,2.773-5.007,2.511-4.613,5.222-9.118,7.8-13.62l1.105-1.881,0-.016c2.786-4.7,5.653-9.249,8.367-13.688,2.962-4.547,5.807-8.926,8.525-13.091,2.873-4.067,5.566-7.9,8.065-11.438,2.572-3.5,5.053-6.6,7.2-9.407,2.089-2.84,4.163-5.1,5.809-7.027,2.908-3.352,4.721-5.447,5.127-5.905-.46.478-2.335,2.5-5.33,5.732-1.712,1.86-3.856,4.076-6.058,6.842-2.24,2.727-4.834,5.744-7.532,9.159-2.63,3.477-5.466,7.23-8.464,11.206-2.877,4.082-5.88,8.378-9.017,12.838-2.206,3.376-4.522,6.811-6.823,10.327-.8,1.21-1.582,2.437-2.369,3.68-.4.652-.8,1.3-1.218,1.953-2.629,4.2-5.361,8.428-7.905,12.76-1.674,2.786-3.364,5.568-5.007,8.361-.026.043-.055.1-.08.144q-1.911,3.2-3.726,6.405c-1.412,2.474-2.837,4.929-4.224,7.359q-2.039,3.681-4.021,7.242-1.312,2.342-2.566,4.65-2.783,5.084-5.307,9.872c-2.212,4.132-4.253,8.076-6.147,11.715-1.978,3.877-3.775,7.441-5.385,10.6-1.564,3.164-2.93,5.937-4.058,8.214C3761.888,5790.9,3761.051,5792.658,3760.46,5793.879Z" transform="translate(-963.574 -302.291)" fill="#e6e6ff"/>
    <path id="Path_19043" data-name="Path 19043" d="M3830.787,5967.6s.025-.062.074-.181c.057-.146.16-.4.232-.63a18.616,18.616,0,0,0,.569-2.1,31.253,31.253,0,0,0,.644-7.3,47.892,47.892,0,0,0-1.316-9.969c-.409-1.779-.953-3.577-1.526-5.389-.638-1.76-1.285-3.548-1.933-5.337-.341-.892-.628-1.775-.878-2.649s-.552-1.747-.753-2.644c-.472-1.773-.826-3.546-1.135-5.269q-.192-1.3-.377-2.555-.13-1.26-.255-2.461c-.119-1.606-.186-3.129-.194-4.539a42.766,42.766,0,0,1,.869-9.36,42.919,42.919,0,0,0-1.605,9.334c-.1,1.424-.155,2.971-.162,4.612q.03,1.229.063,2.523.089,1.292.181,2.635c.179,1.784.4,3.628.742,5.487.135.934.366,1.869.57,2.813s.424,1.889.689,2.788c.5,1.811,1,3.623,1.495,5.406.411,1.775.793,3.52,1.048,5.223a44.306,44.306,0,0,1,.5,9.273,26.945,26.945,0,0,1-1.04,6.262,14.188,14.188,0,0,1-.557,1.568c-.075.186-.113.243-.141.31l-.069.135Z" transform="translate(-1011.897 -508.904)" fill="#e6e6ff"/>
    <path id="Path_19044" data-name="Path 19044" d="M3975.928,5763.875l0-.016a14.355,14.355,0,0,0,.063-2.561,13.435,13.435,0,0,0-.2-1.894c-.061-.382-.133-.785-.2-1.2-.932-4.324-2.827-9.391-4.085-14.72l-.247-1-.109-.458-.1-.505c-.126-.671-.31-1.371-.382-2a37.464,37.464,0,0,1-.392-3.852,36.55,36.55,0,0,1,.338-6.957,29.477,29.477,0,0,1,1.641-6.511.057.057,0,0,1,.025-.043.169.169,0,0,1,.032-.073.31.31,0,0,1-.032.073.057.057,0,0,0-.025.043,28.551,28.551,0,0,0-2.366,6.367,37.641,37.641,0,0,0-1.1,7.079,39.9,39.9,0,0,0-.016,4.1c.017.728.116,1.377.155,2.077l.048.51.073.546.141,1.045c.7,5.528,2.286,13.533,2.663,17.381a18.1,18.1,0,0,1,.073,2.526,10.182,10.182,0,0,1-.247,1.78c-.048.216-.088.4-.14.565a5.344,5.344,0,0,1-.19.57c-.1.3-.15.465-.15.465l1.01-2.171,2.61.718Z" transform="translate(-1124.395 -365.946)" fill="#e6e6ff"/>
    <path id="Path_19045" data-name="Path 19045" d="M3928.99,6001.1l.461-.31a6.768,6.768,0,0,1,1.171-.706,6.618,6.618,0,0,1,.7-.323l1-.314,1.216-.2c.45-.01.917-.071,1.426-.056a28.031,28.031,0,0,1,4.246.326,37.287,37.287,0,0,1,3.867,1.008c2.7.844,5.583,1.959,8.532,2.979l2.264.749c.76.189,1.443.436,2.256.577a31.74,31.74,0,0,0,4.564.639,51.034,51.034,0,0,0,8-.074,57.655,57.655,0,0,0,7.666-1.124,57.643,57.643,0,0,1-7.693.387,49.862,49.862,0,0,1-7.8-.671,30.3,30.3,0,0,1-4.205-1c-.677-.175-1.419-.516-2.131-.767l-2.056-.908c-2.788-1.271-5.554-2.66-8.294-3.815a40.858,40.858,0,0,0-4.093-1.5,22.488,22.488,0,0,0-3.989-.855c-.644-.081-1.292-.075-1.9-.107-.614.02-1.207.08-1.762.122-.554.095-1.076.217-1.558.321a10.945,10.945,0,0,0-1.387.481,10.515,10.515,0,0,0-1.59.766c-.318.172-.3.321-.3.321Z" transform="translate(-1092.641 -576.719)" fill="#e6e6ff"/>
    <g id="Group_8044" data-name="Group 8044" transform="translate(2719.96 5249.06)">
      <g id="Group_8043" data-name="Group 8043" transform="translate(30.68 18.038)">
        <path id="Path_19046" data-name="Path 19046" d="M3562.763,5479.471c-.124-.2-12.184-20.05.527-45.718,4.5-9.079,9.359-17.78,14.062-26.192,8.5-15.214,15.847-28.353,17.863-38.152,1.569-7.628,1.04-15.293.573-22.055-.461-6.677-.859-12.443,1.039-16.086l1.373.672c-1.7,3.262-1.316,8.832-.871,15.281.474,6.858,1.01,14.632-.6,22.461-2.063,10.03-9.461,23.266-18.027,38.591-4.693,8.4-9.546,17.079-14.025,26.124-12.324,24.887-.711,44.07-.592,44.261Z" transform="translate(-3557.472 -5331.268)" fill="#25a1a5"/>
      </g>
      <path id="Path_19047" data-name="Path 19047" d="M3696.751,5280.042s-11.968-6.237-7.906-18.013,11-10.2,11.912-9.367c2.789,2.565.609,7.324.609,7.324s5.127-7.165,8.152-2.938,1.253,8.484-3.441,12.427A65.348,65.348,0,0,0,3696.751,5280.042Z" transform="translate(-3627.585 -5252.092)" fill="#25a1a5"/>
      <path id="Path_19048" data-name="Path 19048" d="M3647.879,5423.916c-2.842-4.45-4.861-13.588-11.173-14.141s-4.282,4.759-4.282,4.759-8.213.883-8.607,6.344,11.465,1.99,14.379,1.821S3647.879,5423.916,3647.879,5423.916Z" transform="translate(-3578.015 -5373.82)" fill="#25a1a5"/>
      <path id="Path_19049" data-name="Path 19049" d="M3728.709,5423.2s13.173-18.806,18.151-15.9.786,6.166.786,6.166,6.553-1.852,6.017,2.841-4.761,4.5-11.255,2.776S3728.709,5423.2,3728.709,5423.2Z" transform="translate(-3659.017 -5371.705)" fill="#25a1a5"/>
      <path id="Path_19050" data-name="Path 19050" d="M3606.145,5543.323c-1.909-4.743-4.8-8.06-12.5-9.152s-11.7,1.039-12.03,3.413,3.719,3.418,3.719,3.418-6.322,1.119-6.433,5.962,12-2.7,16.752-4.139S3606.145,5543.323,3606.145,5543.323Z" transform="translate(-3543.341 -5469.679)" fill="#25a1a5"/>
      <path id="Path_19051" data-name="Path 19051" d="M3698.475,5537.115a45.227,45.227,0,0,1,17.09-10.337c10.623-3.525,7.841,4.013,7.841,4.013s6.944,1.3,4.949,7.156-10.723-.386-15.967-1.711S3698.475,5537.115,3698.475,5537.115Z" transform="translate(-3635.671 -5463.472)" fill="#25a1a5"/>
      <path id="Path_19052" data-name="Path 19052" d="M3547.478,5642.129s1.563-5.864-8.962-6.9-15.981,2.878-17.546,5.964,3.923,4.784,3.923,4.784-7.384,1.749-6.616,6.95,8.844-.132,15.438-5.129A29.914,29.914,0,0,1,3547.478,5642.129Z" transform="translate(-3496.484 -5547.811)" fill="#25a1a5"/>
      <path id="Path_19053" data-name="Path 19053" d="M3649.515,5643.563s7.687-7.1,15.913-6.875,17.475,3.584,18.155,9.521-7.415,3.222-7.415,3.222,5.428,7.421-1.139,10.32-1.784-9.245-10.215-13.61S3649.515,5643.563,3649.515,5643.563Z" transform="translate(-3597.865 -5549.063)" fill="#25a1a5"/>
      <path id="Path_19054" data-name="Path 19054" d="M3455.9,5798.072c-4.182-5.5-8.061-.021-12.522-2.889s-6.734-7.164-10.651-5-.474,5.289-.474,5.289-13.4,3.837-8.285,9.042,14.894-.917,20.971-3.8A25.242,25.242,0,0,1,3455.9,5798.072Z" transform="translate(-3422.808 -5667.137)" fill="#25a1a5"/>
      <path id="Path_19055" data-name="Path 19055" d="M3569.923,5784.989s1.592-3.028,10.581-1.77,14.84-11.658,19.244-10.917,2.2,6.76,2.2,6.76,11.108.14,4.939,8.828-25.129-2.265-28.7-2.9A31.928,31.928,0,0,0,3569.923,5784.989Z" transform="translate(-3536.406 -5653.761)" fill="#25a1a5"/>
    </g>
    <g id="Group_8046" data-name="Group 8046" transform="translate(2579.606 5248.166)">
      <g id="Group_8045" data-name="Group 8045" transform="translate(21.929 18.794)">
        <path id="Path_19056" data-name="Path 19056" d="M3063.593,5443.5c-.051-.3-5.529-29.677-39.744-43.375-12.1-4.845-24.231-9.011-35.96-13.041-21.209-7.286-39.526-13.579-49.869-21.243-8.051-5.965-14.122-13.768-19.479-20.651-5.289-6.8-9.855-12.664-14.8-14.529l-.74,1.823c4.43,1.668,8.843,7.338,13.95,13.9,5.432,6.981,11.59,14.894,19.853,21.017,10.586,7.845,29.037,14.184,50.4,21.524,11.706,4.02,23.809,8.179,35.867,13.005,33.174,13.28,38.507,41.637,38.556,41.922Z" transform="translate(-2903 -5330.657)" fill="#25a1a5"/>
      </g>
      <path id="Path_19057" data-name="Path 19057" d="M2838.755,5275.715s6.122-16.25-7.881-24.053-19.3-.334-19.457,1.246c-.473,4.852,5.7,7.543,5.7,7.543s-11.065-2.467-10.337,4.181,6.081,9.209,13.965,8.959S2838.755,5275.715,2838.755,5275.715Z" transform="translate(-2806.747 -5248.166)" fill="#25a1a5"/>
      <path id="Path_19058" data-name="Path 19058" d="M3014.9,5378.222c-1.094-6.705-7-17.2-1.425-23.146s8.189.889,8.189.889,8.63-6.2,13.7-1.307-9.283,11.747-12.222,14.088S3014.9,5378.222,3014.9,5378.222Z" transform="translate(-2964.55 -5328.842)" fill="#25a1a5"/>
      <path id="Path_19059" data-name="Path 19059" d="M2926.922,5460.351s-28.768-6.721-31.046.337,4.538,6.585,4.538,6.585-7.871,3.85-3.329,7.889,8.421.222,13.172-7S2926.922,5460.351,2926.922,5460.351Z" transform="translate(-2875.21 -5409.779)" fill="#25a1a5"/>
      <path id="Path_19060" data-name="Path 19060" d="M3141.473,5444.619c-2.24-6.186-2.319-11.844,4.127-19.5s12.11-9.048,14.46-7.054-.631,6.469-.631,6.469,7.021-4.353,11.284.2-13.825,7.707-19.611,10.41S3141.473,5444.619,3141.473,5444.619Z" transform="translate(-3064.149 -5378.726)" fill="#25a1a5"/>
      <path id="Path_19061" data-name="Path 19061" d="M3036.309,5537.176a58.194,58.194,0,0,0-25.256,4.758c-13.21,5.738-4.073,10.576-4.073,10.576s-5.539,7.208,1.4,11.108,9.948-9.574,13.838-15.345S3036.309,5537.176,3036.309,5537.176Z" transform="translate(-2958.985 -5471.283)" fill="#25a1a5"/>
      <path id="Path_19062" data-name="Path 19062" d="M3266.1,5497.609s-6.529-4.279,2.671-14.3,17.791-10.957,21.939-9.343.345,7.953.345,7.953,8.58-4.661,12.309.984-8.593,7.464-19.2,8.335A38.507,38.507,0,0,0,3266.1,5497.609Z" transform="translate(-3159.714 -5422.033)" fill="#25a1a5"/>
      <path id="Path_19063" data-name="Path 19063" d="M3163.511,5583.13s-13.462-.207-21.156,7.067-13.676,18.434-9.233,24.708,9.874-3.275,9.874-3.275,1.166,11.773,9.949,8.916-6.226-10.4-1.889-21.815S3163.511,5583.13,3163.511,5583.13Z" transform="translate(-3057.593 -5506.816)" fill="#25a1a5"/>
      <path id="Path_19064" data-name="Path 19064" d="M3486.839,5572.871c-.709-8.859,7.709-6.939,9.525-13.516s.307-12.648,5.916-13.94,4.994,4.664,4.994,4.664,16.14-7.821,15.7,1.558-15.065,11.9-23.363,14.357A32.481,32.481,0,0,0,3486.839,5572.871Z" transform="translate(-3331.863 -5477.552)" fill="#25a1a5"/>
      <path id="Path_19065" data-name="Path 19065" d="M3349.138,5669.018s-4.125-1.538-11.662,7.385-24.232,1.562-27.818,6.051,3.692,8.371,3.692,8.371-10.528,9.667,2.842,12.7,22.146-23.74,25.022-27.418A41.113,41.113,0,0,1,3349.138,5669.018Z" transform="translate(-3194.315 -5573.059)" fill="#25a1a5"/>
    </g>
    <path id="Path_19066" data-name="Path 19066" d="M3174.237,5517.6V5836.49a2.245,2.245,0,0,1-2.25,2.25h-231.31a2.254,2.254,0,0,1-2.26-2.25V5517.6a5.037,5.037,0,0,1,.058-.77,5.66,5.66,0,0,1,5.621-4.9h224.471A5.663,5.663,0,0,1,3174.237,5517.6Z" transform="translate(-328.813 -203.67)" fill="#fafbff"/>
    <path id="Path_19067" data-name="Path 19067" d="M3174.446,5514.984v18.259H2938.684v-18.259a3.063,3.063,0,0,1,3.063-3.064h229.634A3.064,3.064,0,0,1,3174.446,5514.984Z" transform="translate(-329.02 -203.664)" fill="#9ad3d5"/>
    <circle id="Ellipse_562" data-name="Ellipse 562" cx="2.273" cy="2.273" r="2.273" transform="translate(2621.753 5320.171) rotate(-67.963)" fill="#afecee"/>
    <circle id="Ellipse_563" data-name="Ellipse 563" cx="2.273" cy="2.273" r="2.273" transform="translate(2628.14 5320.171) rotate(-67.962)" fill="#25a1a5"/>
    <path id="Path_19068" data-name="Path 19068" d="M3055.374,5551.011a2.273,2.273,0,1,0-2.273,2.272A2.274,2.274,0,0,0,3055.374,5551.011Z" transform="translate(-415.614 -232.093)" fill="#25a1a5"/>
    <rect id="Rectangle_3406" data-name="Rectangle 3406" width="186.077" height="85.731" rx="15.4" transform="translate(2634.478 5532.973)" fill="#9ad3d5"/>
    <g id="Group_8057" data-name="Group 8057" transform="translate(2691.364 5547.851)">
      <g id="Group_8056" data-name="Group 8056" transform="translate(0 0)">
        <g id="Group_8047" data-name="Group 8047">
          <path id="Path_19069" data-name="Path 19069" d="M3319.864,6616.315a.994.994,0,0,1-.921-.64,1.045,1.045,0,0,1,.543-1.346l11.977-5.086a.38.38,0,0,0,.081-.046l-21.841-43.435a.436.436,0,0,0-.336-.121h-11.081a1.032,1.032,0,0,1,0-2.062h11.081a2.343,2.343,0,0,1,2.1,1.23l21.874,43.5a1.99,1.99,0,0,1,.1,1.569,2.2,2.2,0,0,1-1.226,1.271l-11.977,5.085A.959.959,0,0,1,3319.864,6616.315Z" transform="translate(-3297.289 -6563.58)" fill="#fff"/>
        </g>
        <g id="Group_8048" data-name="Group 8048" transform="translate(35.627 45.193)">
          <path id="Path_19070" data-name="Path 19070" d="M3474.874,6769.916l-21.208-5.932.531-2.039,21.208,5.931Z" transform="translate(-3453.666 -6761.945)" fill="#fff"/>
        </g>
        <g id="Group_8049" data-name="Group 8049" transform="translate(17.485 8.971)">
          <path id="Path_19071" data-name="Path 19071" d="M3420.546,6631.925h-32.665a1.057,1.057,0,0,1,0-2.112h32.665a.367.367,0,0,0,.306-.123l5.968-18.368c-.007.027-.08-.058-.242-.076l-51.638-6.183a1.048,1.048,0,0,1-.9-1.171,1.024,1.024,0,0,1,1.13-.927l51.637,6.182a2.332,2.332,0,0,1,1.731,1.084,2.118,2.118,0,0,1,.21,1.765l-5.969,18.369A2.313,2.313,0,0,1,3420.546,6631.925Z" transform="translate(-3374.037 -6602.958)" fill="#fff"/>
        </g>
        <g id="Group_8050" data-name="Group 8050" transform="translate(27.474 29.736)">
          <path id="Path_19072" data-name="Path 19072" d="M3456.943,6695.507h-38.38a.7.7,0,0,1,0-1.408h38.38a.7.7,0,0,1,0,1.408Z" transform="translate(-3417.883 -6694.099)" fill="#fff"/>
        </g>
        <g id="Group_8051" data-name="Group 8051" transform="translate(24.044 20.981)">
          <path id="Path_19073" data-name="Path 19073" d="M3448.138,6658.734h-.024l-44.578-1.543a.748.748,0,0,1-.708-.785.737.737,0,0,1,.757-.734l44.579,1.542a.761.761,0,0,1-.025,1.519Z" transform="translate(-3402.827 -6655.672)" fill="#fff"/>
        </g>
        <g id="Group_8052" data-name="Group 8052" transform="translate(37.964 11.965)">
          <path id="Path_19074" data-name="Path 19074" d="M3464.658,6641.238a.746.746,0,0,1-.733-.76v-23.619a.733.733,0,1,1,1.466,0v23.619A.746.746,0,0,1,3464.658,6641.238Z" transform="translate(-3463.925 -6616.1)" fill="#fff"/>
        </g>
        <g id="Group_8053" data-name="Group 8053" transform="translate(52.73 14.012)">
          <path id="Path_19075" data-name="Path 19075" d="M3529.442,6648.163a.529.529,0,0,1-.067,0,.719.719,0,0,1-.633-.792l1.972-21.624a.7.7,0,0,1,.765-.656.72.72,0,0,1,.633.793l-1.972,21.623A.713.713,0,0,1,3529.442,6648.163Z" transform="translate(-3528.739 -6625.083)" fill="#fff"/>
        </g>
        <g id="Group_8054" data-name="Group 8054" transform="translate(16.532 47.992)">
          <ellipse id="Ellipse_564" data-name="Ellipse 564" cx="4.562" cy="3.99" rx="4.562" ry="3.99" fill="#fff"/>
        </g>
        <g id="Group_8055" data-name="Group 8055" transform="translate(54.881 47.992)">
          <ellipse id="Ellipse_565" data-name="Ellipse 565" cx="4.562" cy="3.99" rx="4.562" ry="3.99" fill="#fff"/>
        </g>
      </g>
    </g>
    <rect id="Rectangle_3407" data-name="Rectangle 3407" width="86.341" height="82.726" rx="14.357" transform="translate(2634.643 5343.444)" fill="#eef8f8"/>
    <rect id="Rectangle_3408" data-name="Rectangle 3408" width="86.341" height="82.726" rx="14.357" transform="translate(2734.05 5343.444)" fill="#eef8f8"/>
    <rect id="Rectangle_3409" data-name="Rectangle 3409" width="86.341" height="82.726" rx="14.357" transform="translate(2634.643 5437.271)" fill="#eef8f8"/>
    <rect id="Rectangle_3410" data-name="Rectangle 3410" width="86.341" height="82.726" rx="14.357" transform="translate(2734.05 5437.271)" fill="#eef8f8"/>
    <g id="Group_8058" data-name="Group 8058" transform="translate(2748.843 5360.128)" opacity="0.42">
      <path id="Path_19076" data-name="Path 19076" d="M3673,5747.827c6.393,0,7.988-6.309,8.288-7.9a.391.391,0,0,1,.434-.319,59.358,59.358,0,0,1,12.448,2.971c4.665,1.7,6.472,2.454,7.134,2.754a.4.4,0,0,1,.2.522l-5.377,12.384a.4.4,0,0,1-.5.214l-7.2-2.68a.4.4,0,0,0-.538.374v32.417a.4.4,0,0,1-.4.4h-14.218a.4.4,0,0,1-.4-.4l.128-40.736" transform="translate(-3644.78 -5739.604)" fill="#25a1a5"/>
      <path id="Path_19077" data-name="Path 19077" d="M3578.12,5747.827c-6.393,0-7.987-6.309-8.288-7.9a.391.391,0,0,0-.435-.319,59.368,59.368,0,0,0-12.448,2.971c-4.665,1.7-6.472,2.454-7.134,2.754a.4.4,0,0,0-.2.522l5.377,12.384a.4.4,0,0,0,.505.214l7.2-2.68a.4.4,0,0,1,.538.374v32.417a.4.4,0,0,0,.4.4h14.219a.4.4,0,0,0,.4-.4l-.128-40.736" transform="translate(-3549.582 -5739.604)" fill="#25a1a5"/>
    </g>
    <g id="Group_8059" data-name="Group 8059" transform="translate(2652.58 5356.655)" opacity="0.42">
      <path id="Path_19078" data-name="Path 19078" d="M3152.415,5732.438c-5.471,0-7.388-5.523-7.92-7.627a.6.6,0,0,0-.9-.364l-16.249,9.8a.6.6,0,0,0-.236.773l3.583,7.688a.6.6,0,0,0,.644.341l8.047-1.29a.6.6,0,0,1,.567.218c1.1,1.375,5.915,7.549,5.619,9.989s-12.241,23.186-14.91,27.8a.6.6,0,0,0,.524.905h22.979Z" transform="translate(-3127.056 -5724.36)" fill="#25a1a5"/>
      <path id="Path_19079" data-name="Path 19079" d="M3231.324,5732.438c5.471,0,7.388-5.523,7.92-7.627a.6.6,0,0,1,.9-.364l16.249,9.8a.6.6,0,0,1,.236.773l-3.582,7.688a.605.605,0,0,1-.644.341l-8.047-1.29a.6.6,0,0,0-.568.218c-1.1,1.375-5.915,7.549-5.619,9.989s12.241,23.186,14.911,27.8a.6.6,0,0,1-.524.905h-22.98Z" transform="translate(-3206.216 -5724.36)" fill="#25a1a5"/>
    </g>
    <g id="Group_8060" data-name="Group 8060" transform="translate(2658.372 5451.833)" opacity="0.42">
      <path id="Path_19080" data-name="Path 19080" d="M3233.165,6142.124h15.182a1.424,1.424,0,0,1,1.316.87c1.03,2.455,3.757,10.051,3.978,22.065a235.248,235.248,0,0,1-1.664,29.408,1.429,1.429,0,0,1-1.419,1.261h-7.314a1.43,1.43,0,0,1-1.4-1.135l-7.77-37Z" transform="translate(-3214.782 -6142.124)" fill="#25a1a5"/>
      <path id="Path_19081" data-name="Path 19081" d="M3172.976,6142.124h-15.183a1.424,1.424,0,0,0-1.315.87c-1.03,2.455-3.757,10.051-3.978,22.065a235.346,235.346,0,0,0,1.664,29.408,1.429,1.429,0,0,0,1.419,1.261h7.314a1.43,1.43,0,0,0,1.4-1.135l7.77-37Z" transform="translate(-3152.475 -6142.124)" fill="#25a1a5"/>
    </g>
    <path id="Path_19082" data-name="Path 19082" d="M3574.849,6200.646c3.908,0,4.354,5.225,9.725,6.531s13.789-.726,14.37.871.29,13.5-3.048,16.4-37.739,4.5-45.868,1.6-14.951-7.257-13.354-10.306,14.37.581,25.547-5.806S3573.978,6200.646,3574.849,6200.646Z" transform="translate(-790.591 -735.481)" fill="#25a1a5" opacity="0.42"/>
    <circle id="Ellipse_566" data-name="Ellipse 566" cx="9.986" cy="9.986" r="9.986" transform="translate(2705.087 5503.92)" fill="#25a1a5"/>
    <path id="Path_19083" data-name="Path 19083" d="M3369.908,6391.065a.078.078,0,0,0-.049.138,20.463,20.463,0,0,1,2.479,2.9c2.007,2.846,2.717,4.287,2.853,4.287s.956-2.492,2.553-5.311a95.26,95.26,0,0,1,5.885-7.891.078.078,0,0,0-.1-.119,70.929,70.929,0,0,0-6.648,5.43,15.85,15.85,0,0,0-1.979,2.508.073.073,0,0,1-.1.02,19.152,19.152,0,0,0-3.053-1.627A4.569,4.569,0,0,0,3369.908,6391.065Z" transform="translate(-661.94 -877.884)" fill="#fff"/>
    <circle id="Ellipse_567" data-name="Ellipse 567" cx="9.986" cy="9.986" r="9.986" transform="matrix(0.246, -0.969, 0.969, 0.246, 2802.309, 5426.874)" fill="#25a1a5"/>
    <path id="Path_19084" data-name="Path 19084" d="M3806.078,5977.346a.077.077,0,0,0-.05.137,20.5,20.5,0,0,1,2.479,2.905c2.007,2.847,2.717,4.287,2.854,4.287s.955-2.492,2.552-5.312a95.479,95.479,0,0,1,5.886-7.891.078.078,0,0,0-.1-.118,70.9,70.9,0,0,0-6.648,5.43,15.836,15.836,0,0,0-1.979,2.508.074.074,0,0,1-.1.019,19.2,19.2,0,0,0-3.052-1.626A4.564,4.564,0,0,0,3806.078,5977.346Z" transform="translate(-998.739 -558.421)" fill="#fff"/>
    <g id="Group_8067" data-name="Group 8067" transform="translate(2812.611 5398.849)">
      <path id="Path_19085" data-name="Path 19085" d="M4028.214,5952.03s-18.811,60.227-23.3,56.16-1.179-27.619-1.179-27.619-.678,2.127-1.708,5.163c-.976,2.969-4.242,7.671-4.445,7.955.122-.582,3.619-15.354,4.174-21.562.542-6.084-.189-30.3-.38-39.165-.013-.325-.026-.637-.026-.922-.163-8.646,2.968-20.328,11.275-22.1a14.967,14.967,0,0,1,14.853,4.893,16.123,16.123,0,0,1,2.25,3.4C4032.957,5924.669,4028.214,5952.03,4028.214,5952.03Z" transform="translate(-3959.287 -5909.562)" fill="#230504"/>
      <path id="Path_19086" data-name="Path 19086" d="M4055.049,6030.049c-1.017,1.532-9.148.339-9.311-.5-.163-.8,2.046-12.684,3.308-15a1.013,1.013,0,0,1,.243-.338c1.192-.922,5.177,5,5.177,5a24.1,24.1,0,0,0,.434,5.516C4055.266,6027.068,4055.6,6029.209,4055.049,6030.049Z" transform="translate(-3996.463 -5990.291)" fill="#e2a374"/>
      <path id="Path_19087" data-name="Path 19087" d="M4066.137,6024.723c-2.074-2.25-5.218-7.44-5.855-10.178a1.034,1.034,0,0,1,.244-.338c1.193-.922,5.177,5,5.177,5A24.068,24.068,0,0,0,4066.137,6024.723Z" transform="translate(-4007.7 -5990.291)" fill="#e6e6e6" style="mix-blend-mode: multiply;isolation: isolate"/>
      <path id="Path_19088" data-name="Path 19088" d="M4069.863,5949.378c.112,5.646-1.13,15.359-6.777,16.6s-10.955-7.116-11.971-11.407,3.84-9.825,8.358-11.292,7.792-.453,7.792.563S4069.863,5949.378,4069.863,5949.378Z" transform="translate(-4000.516 -5935.029)" fill="#e2a374"/>
      <path id="Path_19089" data-name="Path 19089" d="M4332.832,6127.7c-.655-.754-2.545-1.151-5.08-2.66-1-.6-2.091-1.813-2.5-1.628s-.077,1.549.309,2.5.6,1.759,1.141,1.918S4332.832,6127.7,4332.832,6127.7Z" transform="translate(-4212.157 -6074.677)" fill="#bf8a5c"/>
      <g id="Group_8061" data-name="Group 8061" transform="translate(81.051 72.742)">
        <path id="Path_19090" data-name="Path 19090" d="M4192.288,6248.759c-2.808-8.627-6.213-18.024-7.047-18.813l.792-1.1c1.394.959,5.741,13.951,7.545,19.491Z" transform="translate(-4185.241 -6228.848)" fill="#ffb78a"/>
      </g>
      <g id="Group_8062" data-name="Group 8062" transform="translate(84.171 73.355)">
        <path id="Path_19091" data-name="Path 19091" d="M4216.918,6256.9a.68.68,0,0,1-.566-.3c-5.774-8.769-15.482-22.967-16.943-23.737a.657.657,0,0,1-.446-.827.7.7,0,0,1,.86-.46c1.85.521,12.967,17.152,17.662,24.279a.68.68,0,0,1-.193.938A.688.688,0,0,1,4216.918,6256.9Z" transform="translate(-4198.936 -6231.541)" fill="#ff6542"/>
      </g>
      <path id="Path_19092" data-name="Path 19092" d="M4182.11,6139.886c0,.352-5.23,4.391-8.456,3.971s-5.692-1.274-7.847-.5-25.166,25.966-27.254,24.408c-1-.759-3.09-4.906-4.96-9.107-1.573-3.523-2.995-7.088-3.51-8.7a3.7,3.7,0,0,1-.2-.826,4.641,4.641,0,0,1,.732-1.545c.013,0,.013-.013.013-.027,1.017-1.613,2.805-4.039,4.147-5.828,1.017-1.341,1.789-2.33,1.789-2.33a17.318,17.318,0,0,1,.636,2.29c.191.908.394,1.965.583,3.1.989,5.9,1.857,13.918,1.857,13.918s.149-1.41,7.847-8.063,19.312-10.9,21.7-11.248S4182.11,6139.533,4182.11,6139.886Z" transform="translate(-4061.441 -6086.941)" fill="#e2a374"/>
      <path id="Path_19093" data-name="Path 19093" d="M4138.469,6152.4c-.6,1.545-1.491,2.779-1.491,3.036,0,.353-.582,8.538-2.7,10.828-1.572-3.523-3-7.088-3.51-8.7a11.466,11.466,0,0,1,.528-2.372c.014,0,.014-.013.014-.026.854-2.589,2.521-5.313,4.147-5.828a4,4,0,0,1,2.426-.041C4138.076,6150.2,4138.279,6151.259,4138.469,6152.4Z" transform="translate(-4062.13 -6094.547)" fill="#e6e6e6" style="mix-blend-mode: multiply;isolation: isolate"/>
      <path id="Path_19094" data-name="Path 19094" d="M4097.13,6098.949s4.659-4.234,4.829-5.251-2.033-13.3-7.03-16.009a16.863,16.863,0,0,0-10.927-2.118C4082.392,6075.911,4097.13,6098.949,4097.13,6098.949Z" transform="translate(-4025.921 -6037.592)" fill="#eb5b45"/>
      <g id="Group_8063" data-name="Group 8063" transform="translate(28.256 130.332)">
        <path id="Path_19095" data-name="Path 19095" d="M3953.714,6506.341c-.111-2.122-1-20.831,1.96-24.086a1.745,1.745,0,0,1,1.227-.624h.074c4,0,7.79,14.6,8.86,19.1l-1.318.313c-2.073-8.711-5.532-18.058-7.528-18.058h-.027a.453.453,0,0,0-.283.181c-1.953,2.151-2.034,15-1.612,23.1Z" transform="translate(-3953.504 -6481.629)" fill="#7aa5fa"/>
      </g>
      <g id="Group_8064" data-name="Group 8064" transform="translate(18.541 129.966)">
        <path id="Path_19096" data-name="Path 19096" d="M3925.519,6500.146l-1.338-.213c.758-4.763,1.757-17.368-2.659-18.493a2.185,2.185,0,0,0-1.746.339c-4.447,2.77-7.558,17.349-7.588,17.5l-1.326-.279c.131-.623,3.264-15.294,8.2-18.368a3.506,3.506,0,0,1,2.795-.5C3928.255,6481.758,3925.819,6498.269,3925.519,6500.146Z" transform="translate(-3910.861 -6480.022)" fill="#ffaba8"/>
      </g>
      <path id="Path_19097" data-name="Path 19097" d="M3953.778,6137.36a54.56,54.56,0,0,0-2.02,5.19c-1.979,5.706-4.58,14.61-3.971,19.2.908,6.776.854,28.459.786,29.923a174.134,174.134,0,0,1-2.25,17.388c-.229.909-2.154,1.924-3.727,1.694s-2.71-2.588-3.171-4.282,4.215-9.215,5.082-12.088c1.478-4.852-3.5-28.121-3.727-40.548-.176-10.313,5.935-23.581,8.023-27.8a.4.4,0,0,1,.054-.108c.393-.786.623-1.233.623-1.233a90.821,90.821,0,0,1,4.12,10.68A3.6,3.6,0,0,1,3953.778,6137.36Z" transform="translate(-3914.354 -6075.688)" fill="#e2a374"/>
      <path id="Path_19098" data-name="Path 19098" d="M4018.491,6599.523c-.677,1.681-11.018,1-11.194.5s5.773-18.3,5.1-22.7-8.308-40.318-7.806-47.271,5.421-21.169,4.581-24.042c-.5-1.721-2.44-7.508-3.687-12.318-.365-1.437-.677-2.792-.867-3.917a5.318,5.318,0,0,1-.027-2.914c.678-1.058,5.055-.258,8.728.637,2.791.664,5.177,1.4,5.177,1.4s-.04,2.209-.108,5.922c-.339,18.486-1.274,74.375-.57,81.151C4018.654,6584.1,4019.169,6597.815,4018.491,6599.523Z" transform="translate(-3964.553 -6354.951)" fill="#e2a374"/>
      <path id="Path_19099" data-name="Path 19099" d="M4136.121,6583.542c-.339,1.016-16.941-8.809-17.618-9.31s1.179-7.292.853-9.663c-.352-2.373-15.015-28.025-17.292-35.574-4.229-14.067-.84-28.122-.163-31.51.488-2.425-1.287-10.922-2.574-16.8-.516-2.331-.962-4.255-1.153-5.218,0,0,1.111-.935,2.684-2.127,3.321-2.507,8.7-6.153,9.852-4.31.475.773.828,3.063,1.1,6.343.095,1.016.162,2.141.243,3.333.543,8.538.854,21.114,1.708,31.658,1.355,16.764,8.809,48.449,10.666,53.354S4136.459,6582.525,4136.121,6583.542Z" transform="translate(-4036.958 -6341.177)" fill="#e2a374"/>
      <path id="Path_19100" data-name="Path 19100" d="M4025.691,6981.042a1.006,1.006,0,0,1-.217.2c-1.138.908-9.175,2.142-10.679-.176a3.148,3.148,0,0,1-.108-3.781,1.972,1.972,0,0,1,.745-.637c3.157-1.314,9.826-1.016,10.719.406A3.277,3.277,0,0,1,4025.691,6981.042Z" transform="translate(-3972.051 -6732.891)" fill="#25a1a5"/>
      <path id="Path_19101" data-name="Path 19101" d="M4208.133,6938.605a2.613,2.613,0,0,1-1.153.366c-3.672.664-14.8,1.057-15.571.421-.895-.732-3.74-8.674-4.012-8.674-.229,0-.921,5.53-1.843,7.793-.217.556-.447.908-.691.949-1.234.163-1.586.447-2.819-3.1s-2.548-6.382-2.372-9.432.962-6.613,1.694-6.044c.489.38,14.677,9.88,16.94,10.611S4208.756,6937.766,4208.133,6938.605Z" transform="translate(-4099.877 -6690.428)" fill="#25a1a5"/>
      <path id="Path_19102" data-name="Path 19102" d="M4019.2,6492.762s-.04,2.209-.108,5.923c-5.394.04-10.313-.3-12.9-1.125-.365-1.437-.677-2.792-.867-3.917,1.559-.936,5.475-1.694,8.7-2.277C4016.811,6492.03,4019.2,6492.762,4019.2,6492.762Z" transform="translate(-3965.258 -6358.817)" fill="#e6e6e6" style="mix-blend-mode: multiply;isolation: isolate"/>
      <path id="Path_19103" data-name="Path 19103" d="M4112.051,6495.008a61.079,61.079,0,0,1-12.724,1.979c-.516-2.332-.962-4.256-1.153-5.218,0,0,1.111-.936,2.684-2.128a51.6,51.6,0,0,1,10.951,2.033C4111.9,6492.691,4111.97,6493.815,4112.051,6495.008Z" transform="translate(-4036.958 -6357.484)" fill="#e6e6e6" style="mix-blend-mode: multiply;isolation: isolate"/>
      <path id="Path_19104" data-name="Path 19104" d="M3984.537,6141.448a54.334,54.334,0,0,0-2.02,5.191c-2.168-2.006-4.079-12.441-2.954-16.507.014-.041.027-.1.041-.136a.043.043,0,0,0,.014.028c.189.419,2.968,6.247,4.743,9.445A3.608,3.608,0,0,1,3984.537,6141.448Z" transform="translate(-3945.113 -6079.776)" fill="#e6e6e6" style="mix-blend-mode: multiply;isolation: isolate"/>
      <path id="Path_19105" data-name="Path 19105" d="M4020.841,6168.945c.041.461-1.151,1.314-3.537,2.25a43.6,43.6,0,0,1-4.391,1.423,85.641,85.641,0,0,1-12.97,2.3c-13.782,1.478-15.355-1.463-15.924-2.371s-1.354-11.059-1.246-22.47,8.809-24.733,10.733-31.956-3.89-15.9-4.567-16.656-3.646.42-6.193-1.03-4.4-12.875-4.323-14.23,10.354-10.5,16.357-11c2.033-.164,12.535-1.274,15.586.935s7.535,18.147,7.644,23.228-4.852,11.073-6.316,17.618S4020.719,6167.807,4020.841,6168.945Z" transform="translate(-3944.488 -6037.14)" fill="#ff634d"/>
      <path id="Path_19106" data-name="Path 19106" d="M4165.186,6340.688c0,.027-.04.067-.122.108-1.166.665-10.652,3.646-17.713,5.8-2.656.827-4.959,1.518-6.37,1.951-.921.271-1.45.434-1.45.434l-10.842-39.884s25.912-6.193,26.333-5.772c.257.271,4.039,14.093,6.925,24.854C4163.736,6334.928,4165.186,6340.458,4165.186,6340.688Z" transform="translate(-4060.522 -6213.6)" fill="#ffb78a"/>
      <path id="Path_19107" data-name="Path 19107" d="M4043.763,5946.936c6.833,3.162,16.884-10.616,16.884-10.616s.79,5.93,3.726,6.325.847-7.341-2.2-9.091-5.308-3.388-9.2-2.146-7.567,4.8-8.527,8.076A25.27,25.27,0,0,0,4043.763,5946.936Z" transform="translate(-3994.914 -5926.095)" fill="#230504"/>
      <path id="Path_19108" data-name="Path 19108" d="M4133.962,6374.549a43.4,43.4,0,0,1-4.391,1.423.221.221,0,0,1-.04-.122c0-.962-.217-29.814.46-37.716C4129.991,6338.134,4133.23,6367.664,4133.962,6374.549Z" transform="translate(-4061.146 -6240.494)" fill="#e6e6e6" style="mix-blend-mode: multiply;isolation: isolate"/>
      <path id="Path_19109" data-name="Path 19109" d="M4139.5,6368.6l-8.047,1.694-2.8-41.588Z" transform="translate(-4060.499 -6233.214)" fill="#e6925c"/>
      <path id="Path_19110" data-name="Path 19110" d="M4228.436,6420.038c0,.027-.041.068-.122.108-1.166.665-10.652,3.646-17.713,5.8,2.264-1.978,7.21-4.906,9.907-7.358,3.266-2.981,3.943-8.294,3.6-12.522,0,0,.407.542,1.084,1.463C4226.984,6414.278,4228.436,6419.807,4228.436,6420.038Z" transform="translate(-4123.771 -6292.949)" fill="#e6e6e6" style="mix-blend-mode: multiply;isolation: isolate"/>
      <path id="Path_19111" data-name="Path 19111" d="M4217.837,6347.181l-20.83,8.063-8.728,3.375-5.34-20.424,26.006-7.616,2.833,5.3Z" transform="translate(-4102.412 -6234.661)" fill="#ff6542"/>
      <path id="Path_19112" data-name="Path 19112" d="M4174.328,6364.024l-2.541,22.021,7.877-1.608Z" transform="translate(-4093.8 -6260.486)" fill="#d64e32"/>
      <g id="Group_8065" data-name="Group 8065" transform="translate(75.6 69.15)">
        <path id="Path_19113" data-name="Path 19113" d="M4162,6239.593a.679.679,0,0,1-.677-.668c-.013-.877-.31-21.529,2.583-25.562a.677.677,0,0,1,1.1.79c-2.185,3.047-2.421,18.9-2.329,24.751a.68.68,0,0,1-.667.688Z" transform="translate(-4161.313 -6213.08)" fill="#ffb78a"/>
      </g>
      <g id="Group_8066" data-name="Group 8066" transform="translate(78.358 68.811)">
        <path id="Path_19114" data-name="Path 19114" d="M4181.346,6247.31a.678.678,0,0,1-.654-.5c-3.422-12.536-8.861-33.764-6.835-35.1a.678.678,0,0,1,.938.941c-.148.505-.721,4.78,7.205,33.805a.678.678,0,0,1-.475.833A.694.694,0,0,1,4181.346,6247.31Z" transform="translate(-4173.417 -6211.595)" fill="#ff6542"/>
      </g>
      <path id="Path_19115" data-name="Path 19115" d="M3943.035,6591.094l-.163.027-11.682,1.979-14.135,2.4-.786-32.078,24.841-3.944Z" transform="translate(-3896.496 -6411.409)" fill="#7aa5fa"/>
      <path id="Path_19116" data-name="Path 19116" d="M4025.305,6559.457l10.5,30.267-8.583,1.355Z" transform="translate(-3980.691 -6411.393)" fill="#4d7bd1"/>
      <path id="Path_19117" data-name="Path 19117" d="M3868,6547.608l-11.072,41.226-2.155-.394-25.288-4.58s1.478-4.283,5.421-12.645c2.074-4.377,4.147-12.278,5.651-18.824,1.37-5.95,2.263-10.76,2.263-10.76Z" transform="translate(-3829.481 -6397.629)" fill="#ffaba8"/>
      <path id="Path_19118" data-name="Path 19118" d="M3993.444,6609.494l-11.682,1.979c.352-5.217,2.913-28.2,2.913-28.2,1.017,8.741.969,22.458,2.433,23.528s5.481,1.6,6.322,2.668C3993.444,6609.481,3993.444,6609.481,3993.444,6609.494Z" transform="translate(-3947.069 -6429.782)" fill="#e6e6e6" style="mix-blend-mode: multiply;isolation: isolate"/>
      <path id="Path_19119" data-name="Path 19119" d="M3961.024,6567.883s-1.693,24.732-1.354,30.831.79,10.5.79,10.5l-10.5-.113s2.146-11.971,3.5-18.183S3961.024,6567.883,3961.024,6567.883Z" transform="translate(-3922.509 -6417.9)" fill="#db8986"/>
      <path id="Path_19120" data-name="Path 19120" d="M4226.786,6968.644c-3.672.665-14.8,1.058-15.571.42-.9-.732-3.739-8.672-4.012-8.672-.229,0-.921,5.529-1.844,7.792-.243-4.771.339-9.378,1.654-8.9,1.41.5,5.141,6.788,6.523,7.221s12.4,1.33,13.236,2.007C4226.827,6968.548,4226.827,6968.59,4226.786,6968.644Z" transform="translate(-4119.682 -6720.101)" fill="#ccc" style="mix-blend-mode: multiply;isolation: isolate"/>
      <path id="Path_19121" data-name="Path 19121" d="M4025.691,6986.049a1.016,1.016,0,0,1-.217.2c-1.138.908-9.175,2.141-10.679-.176a3.147,3.147,0,0,1-.108-3.781C4015.54,6983.948,4020.026,6985.98,4025.691,6986.049Z" transform="translate(-3972.051 -6737.897)" fill="#ccc" style="mix-blend-mode: multiply;isolation: isolate"/>
      <path id="Path_19122" data-name="Path 19122" d="M4040.23,5914.829c-8.944-2.154-14.121-2.466-18.674,4.079-2.779,4.012-5.408,9.84-7.428,14.055-.013-.325-.026-.637-.026-.922-.163-8.646,2.968-20.328,11.275-22.1A14.968,14.968,0,0,1,4040.23,5914.829Z" transform="translate(-3972.036 -5909.562)" fill="#d9d9d9" style="mix-blend-mode: soft-light;isolation: isolate"/>
      <path id="Path_19123" data-name="Path 19123" d="M3854.77,6624.911l-25.288-4.58s1.478-4.283,5.421-12.645c2.074-4.377,4.147-12.278,5.651-18.824-1.029,8.213-4.128,21.912-3.952,24.867C3836.926,6619.163,3852.114,6621.184,3854.77,6624.911Z" transform="translate(-3829.481 -6434.1)" fill="#e6e6e6" style="mix-blend-mode: multiply;isolation: isolate"/>
      <path id="Path_19124" data-name="Path 19124" d="M4265.514,6365.14l-20.83,8.064v-.014c-.1-1.355,11.52-5.854,14.65-8.985,2.493-2.494,1.613-5.678.122-10.368Z" transform="translate(-4150.09 -6252.62)" fill="#e6e6e6" style="mix-blend-mode: multiply;isolation: isolate"/>
    </g>
    <g id="Group_8069" data-name="Group 8069" transform="translate(2620.417 5528.699)">
      <path id="Path_19125" data-name="Path 19125" d="M2993.52,6514.412l22.893-1.74,11.849,41.569h-29.454Z" transform="translate(-2991.779 -6505.118)" fill="#ffaba8"/>
      <path id="Path_19126" data-name="Path 19126" d="M2987.621,6520.311l-1.741,39.562,7.029.268Z" transform="translate(-2985.88 -6511.017)" fill="#db8986"/>
      <g id="Group_8068" data-name="Group 8068" transform="translate(7.853)">
        <path id="Path_19127" data-name="Path 19127" d="M3021.144,6489.2l-.8-.109c.132-.949,1.378-9.272,4.41-9.567,1.885-.174,3.785,2.643,5.856,8.637l-.759.262c-2.5-7.226-4.208-8.177-5.019-8.1C3023.024,6480.5,3021.61,6485.86,3021.144,6489.2Z" transform="translate(-3020.348 -6479.514)" fill="#ffaba8"/>
      </g>
    </g>
    <path id="Path_19128" data-name="Path 19128" d="M3080.51,6544.056l-19.01-1.445-9.838,34.517h24.457Z" transform="translate(-416.258 -999.537)" fill="#618fe6"/>
    <path id="Path_19129" data-name="Path 19129" d="M3163.4,6548.955l1.446,32.85-5.836.223Z" transform="translate(-499.149 -1004.435)" fill="#4d7bd1"/>
    <g id="Group_8070" data-name="Group 8070" transform="translate(2650.652 5536.802)">
      <path id="Path_19130" data-name="Path 19130" d="M3126.454,6523.122l.66-.091c-.109-.788-1.144-7.7-3.662-7.944-1.565-.144-3.143,2.2-4.862,7.172l.63.218c2.073-6,3.494-6.791,4.167-6.726C3124.893,6515.9,3126.068,6520.349,3126.454,6523.122Z" transform="translate(-3118.591 -6515.08)" fill="#618fe6"/>
    </g>
    <path id="Path_19131" data-name="Path 19131" d="M2839.387,6025.746c0,.694-13.459,2.25-13.459,2.25.778-.778,1.278-3.32,1.514-5.653a16,16,0,0,0,.042-4.333c-.111-.265.709-1.028,1.889-1.89,2.389-1.764,6.223-3.972,6.806-3.4C2837.039,6013.578,2839.387,6025.051,2839.387,6025.746Z" transform="translate(-241.952 -590.296)" fill="#ffdec7"/>
    <path id="Path_19132" data-name="Path 19132" d="M2838.935,6024.184c-.917,2.514-4.32,5.722-6.362,7.084a16.048,16.048,0,0,0,.042-4.334c-.111-.264.708-1.029,1.889-1.889C2836.74,6024.5,2838.935,6024.184,2838.935,6024.184Z" transform="translate(-247.084 -599.221)" fill="#e6e6e6" style="mix-blend-mode: multiply;isolation: isolate"/>
    <path id="Path_19133" data-name="Path 19133" d="M2779.057,5957.724c0,3.646.521,14.324,5.035,16.147s15.8-6.945,15.887-8.421,3.038-11.72-2-13.718S2779.057,5957.724,2779.057,5957.724Z" transform="translate(-205.76 -543.028)" fill="#ffdec7"/>
    <path id="Path_19134" data-name="Path 19134" d="M2652.6,6082.849s-.861,7.64-6.071,2.7a9.043,9.043,0,0,1-1.722-2.39q-.209-.394-.417-.833c-3.389-7.293-4.14-21.252-3.862-21.252.361,0,5.306,7.111,7.126,10.236s.264,7.821.264,8.07a8.418,8.418,0,0,0,1.681,1.167c.111.083.236.153.361.237a17.73,17.73,0,0,1,2.347,1.763C2652.415,6082.654,2652.512,6082.752,2652.6,6082.849Z" transform="translate(-98.748 -627.703)" fill="#ffdec7"/>
    <path id="Path_19135" data-name="Path 19135" d="M2663.43,6089.986c.683-2.78.774-4.1.273-4.376a11.126,11.126,0,0,0-3.282-.547C2660.375,6085.2,2663.43,6089.986,2663.43,6089.986Z" transform="translate(-114.152 -646.21)" fill="#ffdec7"/>
    <g id="Group_8071" data-name="Group 8071" transform="translate(2640.712 5519.314)">
      <path id="Path_19136" data-name="Path 19136" d="M3108.2,6464.076l-30.168-22.746-3.069-2.16.6-.852,3.082,2.17,30.182,22.755Z" transform="translate(-3074.964 -6438.318)" fill="#c7a8a0"/>
    </g>
    <path id="Path_19137" data-name="Path 19137" d="M3047.916,6409.733a2.009,2.009,0,0,1-.25,1.222c-.778,1.75-3.055,4.056-3.236,3.917-.236-.167.431-3.556.778-5.64a12.282,12.282,0,0,0-.653-5.82,3.359,3.359,0,0,0-.195-.556,18.437,18.437,0,0,0-.958-2.208s1.389-1.917,2.083-1.334c.013,0,.013.014.028.028a6.8,6.8,0,0,1,.708,1.986c.111.5.236,1.056.375,1.653C3047.152,6405.607,3047.708,6408.816,3047.916,6409.733Z" transform="translate(-409.88 -888.802)" fill="#ffdec7"/>
    <path id="Path_19138" data-name="Path 19138" d="M3052.772,6446.6a3.45,3.45,0,0,0-.347-1.968c-.087,0-2.778,4.629-2.344,4.456A26.675,26.675,0,0,0,3052.772,6446.6Z" transform="translate(-415.001 -923.882)" fill="#e6e6e6" style="mix-blend-mode: multiply;isolation: isolate"/>
    <g id="Group_8072" data-name="Group 8072" transform="translate(2610.584 5521.497)">
      <rect id="Rectangle_3411" data-name="Rectangle 3411" width="36.272" height="1.042" transform="translate(0 22.762) rotate(-38.868)" fill="#c7a8a0"/>
    </g>
    <path id="Path_19139" data-name="Path 19139" d="M3055.567,6413.133a59,59,0,0,1-4.056-12.112c-.083-.43-.152-.833-.195-1.208a6.98,6.98,0,0,1,0-1.792c.528-3.208,2.779-1.028,2.779-1.028.167.25.361.556.6.945.264.43.556.944.889,1.514,2.819,4.889,7.737,14.265,8.237,16.543C3064.429,6418.772,3056.957,6415.994,3055.567,6413.133Z" transform="translate(-415.947 -886.535)" fill="#ffdec7"/>
    <path id="Path_19140" data-name="Path 19140" d="M2804.544,6920.642c.528-1.125,2.861-1.389,3.208-6.682a31.122,31.122,0,0,0-.042-4.751c-.028-.36-.056-.68-.083-1-.208-1.959-.473-3.168-.222-3.459.445-.514,7.64,1.306,7.64,1.306,0,.472.014,1.083.055,1.806.056.611.111,1.292.195,2.028.347,3.25,1.1,7.375,2.445,9.876C2819.74,6923.5,2804.016,6921.767,2804.544,6920.642Z" transform="translate(-225.43 -1279.101)" fill="#ffdec7"/>
    <path id="Path_19141" data-name="Path 19141" d="M3004.409,6839.762c-.347-1.556-.861-5.9-2.611-7.64-.9-.917-2.486-2.18-3.778-3.25-.278-.221-.528-.431-.764-.625v-.014c-.792-.653-1.347-1.154-1.347-1.32a7.053,7.053,0,0,1,1.014-1.431c.833-1.014,1.986-2.361,2.9-3.4.778-.9,1.375-1.583,1.375-1.583a10.468,10.468,0,0,0,1.347,1.639c.445.458.93.931,1.472,1.4,2.695,2.417,6.209,4.82,6.807,4.765C3011.7,6828.22,3004.756,6841.332,3004.409,6839.762Z" transform="translate(-373.207 -1214.113)" fill="#ffdec7"/>
    <path id="Path_19142" data-name="Path 19142" d="M2859.848,5984.8c-1.944-.583-15.988-13.307-19.793-15.418-1.889-1.042-4.778-2.139-7.376-3.25a33.323,33.323,0,0,1-4.695-5.917c-1.375-3.015-.583-6.265-.111-8.876.32-1.791.472-3.292-.319-4.223-1.972-2.32-8.834-3.043-9.292-4.2s11-10.2,11-10.2c2.334,2.277,3.029,6.057,3.681,9.334.611,3.084,1.167,5.724,3.028,6.293,3.375,1.028,14.293,2.6,19.488,9.694a14.07,14.07,0,0,1,1.694,3.043c.083.208.167.416.236.639C2859.584,5967.761,2859.931,5977.776,2859.848,5984.8Z" transform="translate(-236.022 -528.602)" fill="#591508"/>
    <g id="Group_8073" data-name="Group 8073" transform="translate(2605.332 5421.554)">
      <path id="Path_19143" data-name="Path 19143" d="M2941.979,6039a.151.151,0,0,1-.068-.014c-1.211-.511-1.251-2.172-1.312-4.685-.1-4.209-.256-10.57-5.93-17.356-4.326-5.174-7.318-5.8-14.547-7.312l-.316-.065a.175.175,0,0,1-.134-.207.178.178,0,0,1,.2-.135l.316.067c7.313,1.529,10.339,2.162,14.742,7.43,5.751,6.878,5.907,13.312,6.012,17.57.057,2.377.094,3.95,1.1,4.375a.173.173,0,0,1-.067.333Z" transform="translate(-2919.667 -6009.22)" fill="#591508"/>
    </g>
    <path id="Path_19144" data-name="Path 19144" d="M2803.537,5927.9s-23.7,3.556-23.35-1.9a10.375,10.375,0,0,1,.556-2.792.013.013,0,0,0,.014-.014c1.417-4.14,5.361-7.208,10.709-7.362a12.742,12.742,0,0,1,5.32.986C2800.453,5918.4,2803.357,5921.941,2803.537,5927.9Z" transform="translate(-206.63 -515.549)" fill="#ff7738"/>
    <path id="Path_19145" data-name="Path 19145" d="M2768.829,5963.124c.18.584-8.849,4.918-12.321,5.5-3.042.5-9.723-1.042-12.737-2.375-2.708-1.194,1.486-4.07,6.056-5.39.528-.153,1.055-.278,1.583-.389,0,.1.1,1.084,4.4,2.14,3.348.819,8.806.389,11.459.361C2768.2,5962.944,2768.787,5962.972,2768.829,5963.124Z" transform="translate(-177.853 -550.024)" fill="#f06526"/>
    <path id="Path_19146" data-name="Path 19146" d="M2757.153,6973.039c0,.68-8.181,2.792-15.321,4.181a60.541,60.541,0,0,1-9.154,1.292c-5.125,0-10.681.25-10.765-.875s14.057-9.293,18.835-10.5,12.5-2.264,12.5-2.264a1.348,1.348,0,0,1,.667.472C2755.361,6966.955,2757.153,6972.149,2757.153,6973.039Z" transform="translate(-161.635 -1325.595)" fill="#ffc9b8"/>
    <path id="Path_19147" data-name="Path 19147" d="M3039.625,6868.463c-3.945,8.431-9.265,17.917-10.529,17.875-2.167-.083-.612-20.141.083-23.265s4.708-12.322,4.708-12.322a4.6,4.6,0,0,1,2.5.431c2.5.875,6.112,2.736,7.349,4.4h.014a3.018,3.018,0,0,1,.18.277C3044.556,6856.9,3042.445,6862.406,3039.625,6868.463Z" transform="translate(-397.977 -1237.423)" fill="#ffc9b8"/>
    <path id="Path_19148" data-name="Path 19148" d="M2756.25,7001.667c-.959.82-11.626,3.486-17.808,4.182q-1.333.145-2.333.166c-5.264.056-16.32-1.5-14.723-2.694s12.585-.222,15.876-1.014c2.82-.667,7.028-1.945,10.807-2.917,4.361-1.111,8.14-1.82,8.556-.667C2757.222,7000.361,2757.347,7000.75,2756.25,7001.667Z" transform="translate(-161.107 -1351.278)" fill="#a36153"/>
    <path id="Path_19149" data-name="Path 19149" d="M3051.133,6875.351c.167,1.1-4.305,10.807-8.07,16.363-.083.14-.18.265-.264.389-3.82,5.473-9.459,11.988-10.07,10.849s6.5-10.849,7.028-13.112c.278-1.167,1.9-6.112,3.654-10.474,1.514-3.805,3.111-7.167,3.959-7.167h.014a.185.185,0,0,1,.125.028C3049.814,6873.434,3050.953,6874.226,3051.133,6875.351Z" transform="translate(-401.61 -1254.035)" fill="#a36153"/>
    <path id="Path_19150" data-name="Path 19150" d="M2825.791,6917.949c-1.2.57-5.473.291-7.584-.682-.028-.36-.055-.68-.083-1a11.115,11.115,0,0,1,5.028-1.154,4.351,4.351,0,0,1,2.445.806C2825.652,6916.532,2825.707,6917.213,2825.791,6917.949Z" transform="translate(-235.926 -1287.16)" fill="#e6e6e6" style="mix-blend-mode: multiply;isolation: isolate"/>
    <path id="Path_19151" data-name="Path 19151" d="M2793.079,6398.089c.305,19.767-1.1,49.061-1.333,49.769-.347,1.056-6.431.875-7.459.181-1.055-.694-5.389-24.823-9.209-50.881-3.5-23.863,2.486-64.075,5.9-82.924.1-.542.195-1.055.278-1.556.208-1.1.4-2.111.584-3.029,0,0,6.89-3,10.14-1.125a2.981,2.981,0,0,1,1.333,1.486,2.673,2.673,0,0,1,.167.694,23.37,23.37,0,0,1,.152,3.208c-.013,14.459-5.292,62.035-2.236,66.757C2792.468,6382.323,2792.94,6389.254,2793.079,6398.089Z" transform="translate(-201.867 -818.305)" fill="#4d3f3c"/>
    <g id="Group_8074" data-name="Group 8074" transform="translate(2635.302 5545.694)">
      <path id="Path_19152" data-name="Path 19152" d="M3061.813,6563.745a7.921,7.921,0,0,1-1.653,1.236c-.153.042-.264.056-.306-.014a.138.138,0,0,1-.055-.07c-.014-.055-.1-.111-.222-.194a5.715,5.715,0,0,0-.583-.292c-2.083-.917-7.528-2.584-7.764-2.806-.292-.292,5.1-3.945,5.722-3.945.5,0,3.153,3.084,4.306,4.946a3.824,3.824,0,0,1,.528,1.042A.366.366,0,0,1,3061.813,6563.745Z" transform="translate(-3051.218 -6556.852)" fill="#ffe633"/>
      <path id="Path_19153" data-name="Path 19153" d="M3098.1,6557.823c.1.306-2.792,2.278-5.334,3.861-.292.18-.584.348-.862.528a14.677,14.677,0,0,1-2.889,1.514,24.237,24.237,0,0,1-3.181-1.167c.042-.055.139-.166.278-.333.056-.084.125-.167.195-.264.181-.208.389-.486.639-.792.305-.389.667-.833,1.042-1.305,2.042-2.529,4.792-5.862,5.014-5.751C3093.352,6554.281,3097.922,6557.295,3098.1,6557.823Z" transform="translate(-3077.949 -6554.111)" fill="#ffe633"/>
    </g>
    <path id="Path_19154" data-name="Path 19154" d="M3092.392,6584.524c-.292.181-.583.348-.861.527-1.277.07-3.486.057-5.014.028a2.113,2.113,0,0,1-.306-.014h-.472c.056-.083.125-.166.194-.263a5.721,5.721,0,0,0-.583-.292,4.338,4.338,0,0,1,1.222-.5,8.1,8.1,0,0,1,1.569-.264,13.24,13.24,0,0,1,2.084-.027A3.2,3.2,0,0,1,3092.392,6584.524Z" transform="translate(-442.271 -1031.257)" fill="#e6e6e6" style="mix-blend-mode: multiply;isolation: isolate"/>
    <path id="Path_19155" data-name="Path 19155" d="M3063.742,6589.267v20.655a1.612,1.612,0,0,1-1.611,1.611h-28.044a1.6,1.6,0,0,1-1.6-1.611v-20.655a1.6,1.6,0,0,1,1.6-1.612h28.044A1.613,1.613,0,0,1,3063.742,6589.267Z" transform="translate(-401.453 -1034.319)" fill="#ff672e"/>
    <rect id="Rectangle_3412" data-name="Rectangle 3412" width="5.028" height="23.877" transform="translate(2644.398 5553.337)" fill="#ffe633"/>
    <path id="Path_19156" data-name="Path 19156" d="M3007.227,6828.643c-.347,1.681-4.167,4.75-6,5.334-.278-.223-.528-.43-.764-.625v-.014c-.111-.682-.264-1.737-.333-2.75-.111-1.209-.111-2.334.194-2.653a5.768,5.768,0,0,1,2.708-.75,8.86,8.86,0,0,1,2.722.055C3006.2,6827.7,3006.685,6828.17,3007.227,6828.643Z" transform="translate(-376.414 -1219.217)" fill="#e6e6e6" style="mix-blend-mode: multiply;isolation: isolate"/>
    <path id="Path_19157" data-name="Path 19157" d="M2868.577,6423.349c.181,1.222-4.5,5.736-5.889,5.917-1.111.139-22.252-20.988-32.878-34.851a44.039,44.039,0,0,1-5.5-8.57c-4.07-9.918-2.695-53.437-1.514-75.036.056-1.111.125-2.153.18-3.139.014-.32.042-.625.056-.932,0,0,2.514-.958,5.681-1.889,4.612-1.347,10.612-2.625,12.265-.777a14.278,14.278,0,0,1,2.028,4.181h.014c.556,1.569,1.125,3.487,1.681,5.6a134.771,134.771,0,0,1,3.917,23.905c.694,12.333-9.029,32.989-10.418,38.726s2.778,5.556,7.82,10.931C2852.811,6394.68,2868.41,6422.141,2868.577,6423.349Z" transform="translate(-238.597 -814.632)" fill="#61504c"/>
    <path id="Path_19158" data-name="Path 19158" d="M2663.223,6146.783c-.93.556-3.889,2.277-5.153,2.375q-.208-.4-.417-.833c.736-.931,3.444-1.792,5.209-1.778C2662.973,6146.631,2663.1,6146.7,2663.223,6146.783Z" transform="translate(-112.015 -693.707)" fill="#e6e6e6" style="mix-blend-mode: multiply;isolation: isolate"/>
    <path id="Path_19159" data-name="Path 19159" d="M2689.758,6081.107c-9.375,2.083-15.51,26.045-15.51,26.045s-3.126-6.019-5.788-7.061-6.251-4.4-6.945-4.283-7.061,2.2-6.83,3.01,3.241,6.251,4.978,9.839,3.7,20.951,7.292,22.571a8.853,8.853,0,0,0,10.3-2.083c2.662-2.893,12.733-24.886,12.733-27.086S2689.758,6081.107,2689.758,6081.107Z" transform="translate(-109.718 -643.176)" fill="#ebc4b7"/>
    <path id="Path_19160" data-name="Path 19160" d="M3052.762,6405.106a11.438,11.438,0,0,1-2.917,1.264c-.389.125-.792.221-1.153.305a5.954,5.954,0,0,1-.888.125,3.378,3.378,0,0,0-.2-.556c.237-.208.542-.486.889-.777.306-.25.639-.515.972-.75a4.962,4.962,0,0,1,2.278-1.125h.125C3052.137,6404.023,3052.429,6404.537,3052.762,6405.106Z" transform="translate(-413.128 -892.19)" fill="#e6e6e6" style="mix-blend-mode: multiply;isolation: isolate"/>
    <path id="Path_19161" data-name="Path 19161" d="M2890.238,6047.891c-1.944-.583-15.988-13.307-19.793-15.419-1.889-1.042-4.778-2.139-7.376-3.25a33.334,33.334,0,0,1-4.7-5.917c-1.375-3.014-.583-6.265-.111-8.876-.083,3.889.625,8.487,4.195,9.571,3.889,1.195,20.4-5.723,25.322.819C2889.974,6030.848,2890.321,6040.863,2890.238,6047.891Z" transform="translate(-266.412 -591.688)" fill="#ccc" style="mix-blend-mode: multiply;isolation: isolate"/>
    <path id="Path_19162" data-name="Path 19162" d="M2872.162,6064.85c14.816.232,20.14,3.473,26.044,13.427s5.209,21.183,9.723,26.739,8.334,11,8.566,17.016.926,19.677.926,20.141-5.556,3.588-5.9,3.125-4.051-8.565-5.9-10.186-8.913-9.376-10.65-15.974-5.787-21.415-9.144-24.309S2872.162,6064.85,2872.162,6064.85Z" transform="translate(-277.653 -630.622)" fill="#ffd5c7"/>
    <path id="Path_19163" data-name="Path 19163" d="M2817.541,6098.79c-1.694,8.279-5.6,22.767-6.64,23.21-.777.319-7.431.168-13.571.028-4.723-.111-9.153-.221-10.334-.1-2.708.292-2.6-2.6-5.028-15.682s-1.736-23.836,5.1-37.726c0,0,10.071-3.946,14.46-3.708s16.445,25.808,16.793,28.587A27.3,27.3,0,0,1,2817.541,6098.79Z" transform="translate(-207.021 -630.587)" fill="#ffd5c7"/>
    <path id="Path_19164" data-name="Path 19164" d="M2831.577,6326.879c-3.125-.374-10.654-3.069-14.334-3.611h-.028c-2.1-.306-4.973.25-7.542.57-2.1.278-3.986.388-5.084-.251.1-.542.195-1.055.277-1.555,1.209-.348,3.167-.9,4.987-1.333a27.266,27.266,0,0,1,3.028-.6,35.307,35.307,0,0,1,4.208-.041c4.625.167,11.112.735,12.766,1.208.014,0,.014,0,.028.015h.014C2830.452,6322.851,2831.021,6324.768,2831.577,6326.879Z" transform="translate(-225.474 -827.66)" fill="#e6e6e6" style="mix-blend-mode: multiply;isolation: isolate"/>
    <path id="Path_19165" data-name="Path 19165" d="M2830.364,6318.773v.014c-.125.527-5.723-1.417-11.459-1.876-5.792-.458-13.779,1.278-14.349,1.153s-.347-1.153.625-3.417c0,0,.639-.347,10.154-.25,3.362.042,7.82.139,13.751.318C2829.711,6314.73,2830.364,6318.2,2830.364,6318.773Z" transform="translate(-225.206 -823.303)" fill="#ebb6a0"/>
    <g id="Group_8075" data-name="Group 8075" transform="translate(2582.536 5435.509)">
      <path id="Path_19166" data-name="Path 19166" d="M2820.347,6129.313a.174.174,0,0,1-.124-.05c-.236-.238-.2-.8-.121-1.769a5.85,5.85,0,0,0-.161-2.75c-1.7-3.181,3.7-52.037,3.931-54.116a.185.185,0,0,1,.191-.153.173.173,0,0,1,.153.191c-.055.509-5.62,50.827-3.969,53.913a5.915,5.915,0,0,1,.2,2.945,3.682,3.682,0,0,0,.021,1.493.177.177,0,0,1,0,.246A.174.174,0,0,1,2820.347,6129.313Z" transform="translate(-2819.611 -6070.475)" fill="#61504c"/>
    </g>
    <path id="Path_19167" data-name="Path 19167" d="M2834.855,6070.775c-.34-.432-1.772,2.937-1.114,3.339C2834.98,6074.87,2834.855,6070.775,2834.855,6070.775Z" transform="translate(-247.854 -635.168)" fill="#4d3f3c"/>
    <path id="Path_19168" data-name="Path 19168" d="M2642.026,6060.415h0a.521.521,0,0,1-.726-.123l-13.346-18.795a.522.522,0,0,1,.123-.727h0a.523.523,0,0,1,.727.123l13.346,18.795A.522.522,0,0,1,2642.026,6060.415Z" transform="translate(-89.008 -611.955)" fill="#35488f"/>
    <g id="Group_8076" data-name="Group 8076" transform="translate(2616.01 5568.963)">
      <rect id="Rectangle_3413" data-name="Rectangle 3413" width="52.957" height="0.695" transform="translate(0 0)" fill="#a38675"/>
    </g>
    <g id="Group_8077" data-name="Group 8077" transform="translate(2613.145 5557.069)">
      <rect id="Rectangle_3414" data-name="Rectangle 3414" width="58.686" height="0.694" transform="translate(0 0)" fill="#a38675"/>
    </g>
    <g id="Group_8078" data-name="Group 8078" transform="translate(2642.314 5544.742)">
      <rect id="Rectangle_3415" data-name="Rectangle 3415" width="0.695" height="32.469" transform="translate(0 0)" fill="#a38675"/>
    </g>
    <g id="Group_8079" data-name="Group 8079" transform="translate(2654.466 5545.084)">
      <rect id="Rectangle_3416" data-name="Rectangle 3416" width="32.468" height="0.693" transform="translate(0 32.016) rotate(-80.428)" fill="#a38675"/>
    </g>
    <g id="Group_8080" data-name="Group 8080" transform="translate(2624.417 5545.086)">
      <rect id="Rectangle_3417" data-name="Rectangle 3417" width="0.693" height="32.468" transform="translate(0 0.116) rotate(-9.61)" fill="#a38675"/>
    </g>
    <g id="Group_8081" data-name="Group 8081" transform="translate(2609.346 5544.927)">
      <path id="Path_19169" data-name="Path 19169" d="M2994.244,6584.157h-47.281a1.556,1.556,0,0,1-1.507-1.166l-8.119-31.264a1.568,1.568,0,0,1,.066-.982l1.286.526,8.11,31.371a.169.169,0,0,0,.163.126h47.281a.171.171,0,0,0,.164-.128l8.116-31.262,1.345.349-8.117,31.263A1.559,1.559,0,0,1,2994.244,6584.157Z" transform="translate(-2937.287 -6550.745)" fill="#a38675"/>
    </g>
    <g id="Group_8082" data-name="Group 8082" transform="translate(2609.463 5543.96)">
      <path id="Path_19170" data-name="Path 19170" d="M3004.266,6548.452l-1.343-.349a.165.165,0,0,0-.03-.145.167.167,0,0,0-.134-.066h-63.516a.17.17,0,0,0-.157.106l-1.283-.53a1.553,1.553,0,0,1,1.44-.965h63.516a1.557,1.557,0,0,1,1.507,1.949Z" transform="translate(-2937.802 -6546.502)" fill="#a38675"/>
    </g>
    <path id="Path_19171" data-name="Path 19171" d="M2798.729,5916.815a19.221,19.221,0,0,0-16.029,6.375c1.417-4.14,5.362-7.208,10.709-7.362A12.743,12.743,0,0,1,2798.729,5916.815Z" transform="translate(-208.573 -515.549)" fill="#d9d9d9" style="mix-blend-mode: soft-light;isolation: isolate"/>
    <path id="Path_19172" data-name="Path 19172" d="M2790.3,5962.972c-4.334.9-13.571,1.459-15.835.07-1.653-1.015-1.931-1.7-1.611-2.181.527-.153,1.056-.278,1.583-.389,0,.1.1,1.084,4.4,2.14C2782.191,5963.43,2787.649,5963,2790.3,5962.972Z" transform="translate(-200.882 -550.024)" fill="#e6e6e6" style="mix-blend-mode: multiply;isolation: isolate"/>
    <path id="Path_19173" data-name="Path 19173" d="M2867.935,6209.043v.015c-1.042-.556-2.14-2.728-3.863-2.852-4.042-.305-9.958-.357-10.986-1.191a.484.484,0,0,1-.166-.18.234.234,0,0,1-.014-.167c.167-1.264,8.848-2.682,12.167-4.432,3.473-1.82,4.515-26.822,4.765-27.864.222-.9,2.194,4.639,3.458,9.4-1.694,8.278-5.6,22.767-6.639,23.211C2867.282,6205,2867.935,6208.475,2867.935,6209.043Z" transform="translate(-262.777 -713.573)" fill="#e6e6e6" style="mix-blend-mode: multiply;isolation: isolate"/>
    <path id="Path_19174" data-name="Path 19174" d="M2814.592,6977.583c-.959.82-11.626,3.486-17.807,4.182.236-.751,1.195-1.793,2.861-2.945a33.805,33.805,0,0,1,6.125-3.223c.222-.1.431-.18.639-.292,5.334-2.445,5.459-5.709,5.32-8.362,1.444,1.612,3.236,6.806,3.236,7.7C2815.564,6976.277,2815.689,6976.667,2814.592,6977.583Z" transform="translate(-219.449 -1327.195)" fill="#e6e6e6" style="mix-blend-mode: multiply;isolation: isolate"/>
    <path id="Path_19175" data-name="Path 19175" d="M3075.976,6860.427c.167,1.1-4.306,10.806-8.07,16.362a43.83,43.83,0,0,1,.194-6.639c.042-.514.083-1.055.139-1.6a23.877,23.877,0,0,0,.014-4.112,30.876,30.876,0,0,0-3.389-11.571c2.5.875,6.112,2.736,7.348,4.4h.014a.186.186,0,0,1,.125.028C3074.656,6858.51,3075.8,6859.3,3075.976,6860.427Z" transform="translate(-426.452 -1239.111)" fill="#e6e6e6" style="mix-blend-mode: multiply;isolation: isolate"/>
    <path id="Path_19176" data-name="Path 19176" d="M2904.561,5989.689c-3.375-1.973-17.182-5.334-20.126-7.195-3.112-1.986-2.695-4.474-2.389-8.793.611,3.083,1.167,5.723,3.028,6.292C2888.448,5981.021,2899.366,5982.591,2904.561,5989.689Z" transform="translate(-285.124 -560.24)" fill="#d9d9d9" style="mix-blend-mode: soft-light;isolation: isolate"/>
  </g>
</svg>
