<svg xmlns="http://www.w3.org/2000/svg" width="202.856" height="48.798" viewBox="0 0 202.856 48.798">
  <g id="Group_6406" data-name="Group 6406" transform="translate(-119.596 181.304)">
    <g id="Group_6405" data-name="Group 6405">
      <path id="Path_14093" data-name="Path 14093" d="M155.81-165.534a12.121,12.121,0,0,0-10.185-3.443l5.1-5.1a1.239,1.239,0,0,0,.223-.306.117.117,0,0,0,.017-.028.4.4,0,0,0,.017-.044.085.085,0,0,0,.017-.039.7.7,0,0,0,.05-.139.623.623,0,0,0,.022-.1,1.231,1.231,0,0,0,.006-.428,1.261,1.261,0,0,0-.028-.139.785.785,0,0,0-.072-.189.538.538,0,0,0-.067-.128.812.812,0,0,0-.1-.145,1.2,1.2,0,0,0-.195-.189.611.611,0,0,0-.083-.061.889.889,0,0,0-.133-.078l-.083-.039-10.2-5.034a.163.163,0,0,0-.072-.033.081.081,0,0,0-.039-.017.416.416,0,0,0-.128-.045.552.552,0,0,0-.106-.028l-.117-.017a1.222,1.222,0,0,0-.779.184c-.044.028-.089.061-.133.1a1.228,1.228,0,0,0-.128.122L123.15-165.439a12.059,12.059,0,0,0-3.554,8.583,12.063,12.063,0,0,0,3.554,8.583,12.109,12.109,0,0,0,8.588,3.554,11.89,11.89,0,0,0,1.6-.106l-5.006,5.012a1.183,1.183,0,0,0-.167.172.129.129,0,0,0-.028.033,1.012,1.012,0,0,0-.117.178L128-139.4a1.2,1.2,0,0,0-.056.133.818.818,0,0,0-.039.139.309.309,0,0,0-.017.1.959.959,0,0,0-.017.178,1.3,1.3,0,0,0,.05.356,1.113,1.113,0,0,0,.056.145,1.2,1.2,0,0,0,.261.384,1.027,1.027,0,0,0,.1.083c.032.027.065.053.1.078a.694.694,0,0,0,.106.061.159.159,0,0,0,.028.017l10.257,5.056.056.028a1.4,1.4,0,0,0,.273.1.649.649,0,0,0,.139.022,1.2,1.2,0,0,0,.133.011h.006a1.34,1.34,0,0,0,.362-.05c.045-.017.1-.033.145-.056a1.106,1.106,0,0,0,.156-.083c.044-.028.089-.061.133-.095a.753.753,0,0,0,.1-.083l15.5-15.5a12.069,12.069,0,0,0,3.554-8.583A12.065,12.065,0,0,0,155.81-165.534Zm-1.769,15.4-14.868,14.863-7.938-3.921,9.078-9.078,8.2-8.2a1.249,1.249,0,0,0,0-1.767l0,0a1.248,1.248,0,0,0-1.766,0l0,0-8.2,8.2a9.642,9.642,0,0,1-13.628,0,9.557,9.557,0,0,1-2.826-6.814,9.555,9.555,0,0,1,2.826-6.814l14.857-14.863,7.943,3.916-9.078,9.078-8.2,8.2a1.256,1.256,0,0,0,0,1.774,1.126,1.126,0,0,0,.1.083,1.494,1.494,0,0,0,.323.189,1.267,1.267,0,0,0,.467.089,1.254,1.254,0,0,0,.473-.089,1.564,1.564,0,0,0,.317-.189c.033-.028.067-.056.095-.083l8.2-8.2a1.2,1.2,0,0,1,.089-.083,9.653,9.653,0,0,1,13.544.083,9.591,9.591,0,0,1,2.82,6.82,9.59,9.59,0,0,1-2.82,6.811Z" fill="#25a1a5"/>
      <path id="Path_14094" data-name="Path 14094" d="M130.86-155.288a1.151,1.151,0,0,1-.323-.189A1.494,1.494,0,0,0,130.86-155.288Z" fill="#25a1a5"/>
      <path id="Path_14095" data-name="Path 14095" d="M132.114-155.477a1.106,1.106,0,0,1-.317.189A1.562,1.562,0,0,0,132.114-155.477Z" fill="#25a1a5"/>
    </g>
    <path id="Path_14096" data-name="Path 14096" d="M175.292-144.747a10.253,10.253,0,0,1-5.724-1.535,8.065,8.065,0,0,1-3.287-4.208l3.3-1.936a5.6,5.6,0,0,0,5.807,3.938,5.22,5.22,0,0,0,3.254-.851,2.689,2.689,0,0,0,1.085-2.219,2.44,2.44,0,0,0-1.168-2.186,18.094,18.094,0,0,0-4.138-1.652,28.323,28.323,0,0,1-2.7-.934,12.664,12.664,0,0,1-2.186-1.218,4.975,4.975,0,0,1-1.719-1.952,6.2,6.2,0,0,1-.567-2.737,6.05,6.05,0,0,1,2.2-4.923,8.059,8.059,0,0,1,5.307-1.819,8.79,8.79,0,0,1,4.906,1.368,8.938,8.938,0,0,1,3.237,3.771l-3.237,1.869a5.034,5.034,0,0,0-4.906-3.271,4.213,4.213,0,0,0-2.67.784,2.55,2.55,0,0,0-1,2.119,2.415,2.415,0,0,0,1.018,2.053,13.53,13.53,0,0,0,3.688,1.585q1.335.434,1.952.651t1.735.684a6.875,6.875,0,0,1,1.685.934,12.8,12.8,0,0,1,1.218,1.168,3.986,3.986,0,0,1,.918,1.6,7.182,7.182,0,0,1,.267,2.036,6.123,6.123,0,0,1-2.286,5.023A9.223,9.223,0,0,1,175.292-144.747Zm22.627-17.121h3.6v16.687h-3.6v-2.136a5.682,5.682,0,0,1-5.172,2.57,6.149,6.149,0,0,1-4.639-1.836,6.959,6.959,0,0,1-1.769-5.04v-10.246h3.6v9.879a3.889,3.889,0,0,0,1,2.87,3.7,3.7,0,0,0,2.737,1,4.126,4.126,0,0,0,3.071-1.185,4.974,4.974,0,0,0,1.168-3.621Zm17.255,17.117a6.78,6.78,0,0,1-5.841-2.8v9.045h-3.6v-23.362h3.6v2.4a6.751,6.751,0,0,1,5.841-2.837,7.824,7.824,0,0,1,5.874,2.553,8.681,8.681,0,0,1,2.436,6.224,8.669,8.669,0,0,1-2.436,6.241,7.859,7.859,0,0,1-5.874,2.536Zm-4.339-12.6a5.214,5.214,0,0,0-1.5,3.82,5.218,5.218,0,0,0,1.5,3.821,5.088,5.088,0,0,0,3.771,1.519,5.087,5.087,0,0,0,3.771-1.519,5.21,5.21,0,0,0,1.5-3.821,5.207,5.207,0,0,0-1.5-3.821,5.083,5.083,0,0,0-3.771-1.519,5.084,5.084,0,0,0-3.771,1.519Zm18.757,5.36a4.581,4.581,0,0,0,1.836,2.92,5.906,5.906,0,0,0,3.5,1.018,4.893,4.893,0,0,0,4.305-2.069l2.97,1.735a8.261,8.261,0,0,1-7.309,3.638,8.924,8.924,0,0,1-6.575-2.486,8.5,8.5,0,0,1-2.5-6.291,8.587,8.587,0,0,1,2.47-6.258,8.489,8.489,0,0,1,6.341-2.52,7.8,7.8,0,0,1,6.024,2.57,8.9,8.9,0,0,1,2.355,6.243,11.267,11.267,0,0,1-.133,1.5Zm-.033-2.937h9.812a4.811,4.811,0,0,0-1.685-3.07,4.852,4.852,0,0,0-3.087-1.035,5.068,5.068,0,0,0-3.337,1.1,4.965,4.965,0,0,0-1.7,3.006Zm20.224-4.138a5.1,5.1,0,0,1,5.14-3.1v3.9a5.343,5.343,0,0,0-3.605.985,4.257,4.257,0,0,0-1.535,3.688v8.41h-3.6v-16.687h3.6Zm17.554.667H263.2v8.01a2,2,0,0,0,.467,1.485,2.1,2.1,0,0,0,1.385.5q1.143.048,2.286-.017v3.237q-4.139.5-5.94-.718t-1.8-4.489v-8.01h-3.07v-3.471h3.07v-3.6l3.6-1.068v4.672h4.138Zm5.441,6.408a4.586,4.586,0,0,0,1.835,2.92,5.906,5.906,0,0,0,3.5,1.018,4.89,4.89,0,0,0,4.3-2.069l2.97,1.735a8.261,8.261,0,0,1-7.309,3.638,8.925,8.925,0,0,1-6.575-2.486,8.5,8.5,0,0,1-2.5-6.291,8.587,8.587,0,0,1,2.47-6.258,8.488,8.488,0,0,1,6.341-2.52,7.8,7.8,0,0,1,6.023,2.57,8.907,8.907,0,0,1,2.361,6.243,11.1,11.1,0,0,1-.134,1.5Zm-.033-2.937h9.812a4.808,4.808,0,0,0-1.686-3.07,4.852,4.852,0,0,0-3.087-1.035,5.068,5.068,0,0,0-3.337,1.1,4.963,4.963,0,0,0-1.7,3.006Zm24.4,10.18a8.508,8.508,0,0,1-6.291-2.536,8.512,8.512,0,0,1-2.52-6.241,8.491,8.491,0,0,1,2.52-6.258,8.528,8.528,0,0,1,6.291-2.52,8.643,8.643,0,0,1,4.439,1.168,7.54,7.54,0,0,1,3,3.137l-3.1,1.8a4.269,4.269,0,0,0-1.719-1.886,5.09,5.09,0,0,0-2.653-.684,4.975,4.975,0,0,0-3.688,1.5,5.1,5.1,0,0,0-1.485,3.738,5.1,5.1,0,0,0,1.485,3.738,4.979,4.979,0,0,0,3.688,1.5,5.125,5.125,0,0,0,2.653-.7,4.579,4.579,0,0,0,1.786-1.869l3.1,1.769a7.944,7.944,0,0,1-3.07,3.171A8.657,8.657,0,0,1,297.142-144.747Zm18.89-17.555a6.151,6.151,0,0,1,4.64,1.836,6.958,6.958,0,0,1,1.769,5.04v10.246h-3.6v-9.879a3.886,3.886,0,0,0-1-2.87,3.7,3.7,0,0,0-2.737-1,4.116,4.116,0,0,0-3.07,1.185,4.972,4.972,0,0,0-1.169,3.621v8.944h-3.6v-23.362h3.6v8.811a5.681,5.681,0,0,1,5.165-2.572ZM191.774-165.63a1.937,1.937,0,0,1-1.418.584,1.935,1.935,0,0,1-1.419-.584,1.932,1.932,0,0,1-.584-1.419,1.932,1.932,0,0,1,.584-1.418,1.929,1.929,0,0,1,1.419-.585,1.93,1.93,0,0,1,1.418.585,1.928,1.928,0,0,1,.583,1.418A1.932,1.932,0,0,1,191.774-165.63Zm6.341,0a1.933,1.933,0,0,1-1.418.584,1.933,1.933,0,0,1-1.418-.584,1.931,1.931,0,0,1-.584-1.419,1.932,1.932,0,0,1,.584-1.418,1.926,1.926,0,0,1,1.418-.585,1.93,1.93,0,0,1,1.418.585,1.933,1.933,0,0,1,.585,1.418,1.933,1.933,0,0,1-.586,1.419Z" fill="#002543"/>
  </g>
</svg>
