<svg xmlns="http://www.w3.org/2000/svg" width="202.852" height="48.8" viewBox="0 0 202.852 48.8">
  <g id="Group_6406" data-name="Group 6406" transform="translate(-329.194 191.579)">
    <g id="Group_6405" data-name="Group 6405" transform="translate(329.194 -191.579)">
      <path id="Path_14093" data-name="Path 14093" d="M365.417-175.815a12.121,12.121,0,0,0-10.185-3.443l5.1-5.1a1.235,1.235,0,0,0,.223-.306.121.121,0,0,0,.017-.028.383.383,0,0,0,.017-.044.083.083,0,0,0,.017-.039.7.7,0,0,0,.05-.139.583.583,0,0,0,.022-.095,1.233,1.233,0,0,0,.006-.428,1.226,1.226,0,0,0-.028-.139.781.781,0,0,0-.072-.189.561.561,0,0,0-.067-.128.841.841,0,0,0-.1-.145,1.257,1.257,0,0,0-.195-.189.792.792,0,0,0-.083-.061,1.051,1.051,0,0,0-.133-.078l-.083-.039-10.2-5.034a.173.173,0,0,0-.072-.033.083.083,0,0,0-.039-.017.441.441,0,0,0-.128-.045.589.589,0,0,0-.106-.028l-.117-.017a1.224,1.224,0,0,0-.779.184c-.044.028-.089.061-.133.095a1.332,1.332,0,0,0-.128.122l-15.464,15.458a12.059,12.059,0,0,0-3.554,8.583,12.059,12.059,0,0,0,3.554,8.583,12.108,12.108,0,0,0,8.588,3.554,11.777,11.777,0,0,0,1.6-.106l-5.006,5.012a1.223,1.223,0,0,0-.167.172.147.147,0,0,0-.028.033.985.985,0,0,0-.117.178l-.017.033a1.351,1.351,0,0,0-.056.133.754.754,0,0,0-.039.139.315.315,0,0,0-.017.1.966.966,0,0,0-.017.178,1.279,1.279,0,0,0,.05.356,1.11,1.11,0,0,0,.056.145,1.178,1.178,0,0,0,.261.384c.033.028.061.061.095.083a1.22,1.22,0,0,0,.1.078.658.658,0,0,0,.106.061.123.123,0,0,0,.028.017l10.257,5.056.056.028a1.35,1.35,0,0,0,.273.1.6.6,0,0,0,.139.022,1.081,1.081,0,0,0,.133.011h.006a1.319,1.319,0,0,0,.362-.05c.045-.017.095-.033.145-.056a1.063,1.063,0,0,0,.156-.083c.044-.028.089-.061.133-.095a.632.632,0,0,0,.095-.083l15.5-15.5a12.068,12.068,0,0,0,3.554-8.583A12.071,12.071,0,0,0,365.417-175.815Zm-1.769,15.4-14.868,14.863-7.938-3.921,9.078-9.078,8.2-8.2a1.249,1.249,0,0,0,0-1.769,1.249,1.249,0,0,0-1.769,0l-8.2,8.2a9.642,9.642,0,0,1-13.628,0,9.554,9.554,0,0,1-2.826-6.814,9.554,9.554,0,0,1,2.826-6.814l14.857-14.863,7.943,3.916-9.078,9.078-8.2,8.2a1.256,1.256,0,0,0,0,1.774c.028.028.061.056.095.083a1.443,1.443,0,0,0,.323.189,1.244,1.244,0,0,0,.467.089,1.252,1.252,0,0,0,.473-.089,1.54,1.54,0,0,0,.317-.189c.033-.028.067-.056.095-.083l8.2-8.2c.028-.028.056-.056.089-.083a9.653,9.653,0,0,1,13.544.083,9.594,9.594,0,0,1,2.82,6.82A9.591,9.591,0,0,1,363.648-160.412Z" transform="translate(-329.194 191.579)" fill="#25a1a5"/>
      <path id="Path_14094" data-name="Path 14094" d="M349.2-144.969a1.117,1.117,0,0,1-.323-.189A1.443,1.443,0,0,0,349.2-144.969Z" transform="translate(-337.927 170.979)" fill="#25a1a5"/>
      <path id="Path_14095" data-name="Path 14095" d="M351.461-145.158a1.09,1.09,0,0,1-.317.189A1.542,1.542,0,0,0,351.461-145.158Z" transform="translate(-338.934 170.979)" fill="#25a1a5"/>
    </g>
    <path id="Path_14096" data-name="Path 14096" d="M422.15-145.257a10.249,10.249,0,0,1-5.724-1.535A8.065,8.065,0,0,1,413.139-151l3.3-1.936a5.594,5.594,0,0,0,5.807,3.938,5.215,5.215,0,0,0,3.254-.851,2.689,2.689,0,0,0,1.085-2.219,2.44,2.44,0,0,0-1.168-2.186,18.155,18.155,0,0,0-4.138-1.652,27.966,27.966,0,0,1-2.7-.934,12.556,12.556,0,0,1-2.186-1.218,4.966,4.966,0,0,1-1.719-1.952,6.2,6.2,0,0,1-.567-2.737,6.05,6.05,0,0,1,2.2-4.923,8.065,8.065,0,0,1,5.307-1.819,8.792,8.792,0,0,1,4.906,1.368,8.948,8.948,0,0,1,3.237,3.771l-3.237,1.869a5.035,5.035,0,0,0-4.906-3.271,4.215,4.215,0,0,0-2.67.784,2.551,2.551,0,0,0-1,2.119,2.412,2.412,0,0,0,1.018,2.053,13.521,13.521,0,0,0,3.688,1.585q1.335.434,1.952.651t1.735.684a6.9,6.9,0,0,1,1.685.934,12.863,12.863,0,0,1,1.218,1.168,3.994,3.994,0,0,1,.918,1.6,7.184,7.184,0,0,1,.267,2.036,6.123,6.123,0,0,1-2.286,5.023A9.221,9.221,0,0,1,422.15-145.257Zm22.627-17.121h3.605v16.687h-3.605v-2.136a5.681,5.681,0,0,1-5.172,2.57,6.148,6.148,0,0,1-4.639-1.836,6.956,6.956,0,0,1-1.769-5.04v-10.246H436.8v9.879a3.884,3.884,0,0,0,1,2.87,3.7,3.7,0,0,0,2.737,1,4.122,4.122,0,0,0,3.071-1.185,4.974,4.974,0,0,0,1.168-3.621Zm17.255-.434a7.853,7.853,0,0,1,5.874,2.536,8.667,8.667,0,0,1,2.436,6.241,8.683,8.683,0,0,1-2.436,6.224,7.827,7.827,0,0,1-5.874,2.553,6.752,6.752,0,0,1-5.841-2.837v2.4h-3.6v-23.362h3.6v9.045A6.779,6.779,0,0,1,462.032-162.812Zm-4.339,12.6a5.085,5.085,0,0,0,3.771,1.519,5.085,5.085,0,0,0,3.771-1.519,5.212,5.212,0,0,0,1.5-3.821,5.213,5.213,0,0,0-1.5-3.821,5.085,5.085,0,0,0-3.771-1.519,5.085,5.085,0,0,0-3.771,1.519,5.213,5.213,0,0,0-1.5,3.821A5.212,5.212,0,0,0,457.693-150.213ZM476.45-152.5a4.582,4.582,0,0,0,1.836,2.92,5.9,5.9,0,0,0,3.5,1.018,4.891,4.891,0,0,0,4.305-2.069l2.97,1.735a8.261,8.261,0,0,1-7.309,3.638,8.922,8.922,0,0,1-6.575-2.486,8.5,8.5,0,0,1-2.5-6.291,8.584,8.584,0,0,1,2.47-6.258,8.494,8.494,0,0,1,6.341-2.52,7.8,7.8,0,0,1,6.024,2.57A8.908,8.908,0,0,1,489.867-154a11.227,11.227,0,0,1-.133,1.5Zm-.033-2.937h9.812a4.814,4.814,0,0,0-1.685-3.07,4.858,4.858,0,0,0-3.087-1.035,5.069,5.069,0,0,0-3.337,1.1A4.965,4.965,0,0,0,476.417-155.436Zm20.224-4.138a5.1,5.1,0,0,1,5.14-3.1v3.9a5.348,5.348,0,0,0-3.605.985,4.257,4.257,0,0,0-1.535,3.688v8.41h-3.6v-16.687h3.6Zm17.554.667h-4.138v8.01a2,2,0,0,0,.467,1.485,2.092,2.092,0,0,0,1.385.5,22.635,22.635,0,0,0,2.286-.017v3.237q-4.138.5-5.94-.718t-1.8-4.489v-8.01h-3.07v-3.471h3.07v-3.6l3.6-1.068v4.672h4.138Zm5.441,6.408a4.584,4.584,0,0,0,1.835,2.92,5.9,5.9,0,0,0,3.5,1.018,4.889,4.889,0,0,0,4.3-2.069l2.97,1.735a8.261,8.261,0,0,1-7.309,3.638,8.923,8.923,0,0,1-6.575-2.486,8.5,8.5,0,0,1-2.5-6.291,8.585,8.585,0,0,1,2.47-6.258,8.493,8.493,0,0,1,6.341-2.52,7.8,7.8,0,0,1,6.023,2.57A8.91,8.91,0,0,1,533.052-154a11.142,11.142,0,0,1-.134,1.5Zm-.033-2.937h9.812a4.814,4.814,0,0,0-1.686-3.07,4.856,4.856,0,0,0-3.087-1.035,5.069,5.069,0,0,0-3.337,1.1A4.963,4.963,0,0,0,519.6-155.436ZM544-145.257a8.506,8.506,0,0,1-6.291-2.536,8.508,8.508,0,0,1-2.52-6.241,8.494,8.494,0,0,1,2.52-6.258,8.535,8.535,0,0,1,6.291-2.52,8.651,8.651,0,0,1,4.439,1.168,7.547,7.547,0,0,1,3,3.137l-3.1,1.8a4.273,4.273,0,0,0-1.719-1.886,5.1,5.1,0,0,0-2.653-.684,4.977,4.977,0,0,0-3.688,1.5,5.1,5.1,0,0,0-1.485,3.738,5.1,5.1,0,0,0,1.485,3.738,4.977,4.977,0,0,0,3.688,1.5,5.114,5.114,0,0,0,2.653-.7,4.577,4.577,0,0,0,1.786-1.869l3.1,1.769a7.941,7.941,0,0,1-3.07,3.171A8.651,8.651,0,0,1,544-145.257Zm18.89-17.555a6.153,6.153,0,0,1,4.64,1.836,6.961,6.961,0,0,1,1.769,5.04v10.246h-3.6v-9.879a3.884,3.884,0,0,0-1-2.87,3.7,3.7,0,0,0-2.737-1,4.12,4.12,0,0,0-3.07,1.185,4.97,4.97,0,0,0-1.169,3.621v8.944h-3.6v-23.362h3.6v8.811A5.682,5.682,0,0,1,562.888-162.812ZM438.632-166.14a1.933,1.933,0,0,1-1.418.584,1.93,1.93,0,0,1-1.419-.584,1.931,1.931,0,0,1-.584-1.419,1.931,1.931,0,0,1,.584-1.418,1.931,1.931,0,0,1,1.419-.585,1.933,1.933,0,0,1,1.418.585,1.932,1.932,0,0,1,.583,1.418A1.933,1.933,0,0,1,438.632-166.14Zm6.341,0a1.932,1.932,0,0,1-1.418.584,1.931,1.931,0,0,1-1.418-.584,1.931,1.931,0,0,1-.584-1.419,1.93,1.93,0,0,1,.584-1.418,1.931,1.931,0,0,1,1.418-.585,1.932,1.932,0,0,1,1.418.585,1.933,1.933,0,0,1,.585,1.418A1.934,1.934,0,0,1,444.972-166.14Z" transform="translate(-37.251 -9.771)" fill="#002543"/>
  </g>
</svg>
